<svg id="svg" version="1.1" xmlns="http://www.w3.org/2000/svg" xmlns:xlink="http://www.w3.org/1999/xlink" width="400" height="400" viewBox="0, 0, 400,400"><g id="svgg"><path id="path0" d="M136.190 64.416 C 136.048 64.645,135.565 64.716,135.116 64.573 C 134.619 64.416,134.396 64.470,134.546 64.712 C 134.681 64.931,134.478 65.085,134.096 65.055 C 133.632 65.018,133.396 65.294,133.388 65.879 C 133.370 67.218,133.214 67.258,128.138 67.243 C 121.135 67.223,119.012 68.042,120.720 70.105 C 121.042 70.494,120.084 70.600,116.265 70.600 C 112.666 70.600,111.387 70.730,111.350 71.100 C 111.322 71.375,111.278 72.050,111.250 72.600 C 111.201 73.574,111.122 73.600,108.176 73.600 C 106.158 73.600,105.239 73.740,105.414 74.022 C 105.584 74.297,105.139 74.401,104.137 74.322 C 102.881 74.222,102.610 74.327,102.655 74.896 C 102.685 75.281,102.526 75.478,102.297 75.336 C 102.030 75.171,101.976 75.448,102.143 76.116 C 102.286 76.685,102.224 77.261,102.006 77.396 C 101.788 77.531,101.702 77.400,101.816 77.104 C 102.014 76.586,99.049 76.488,96.600 76.932 C 95.801 77.076,95.744 77.195,95.650 78.912 C 95.604 79.751,95.434 79.816,93.500 79.728 C 92.345 79.676,91.130 79.745,90.800 79.882 C 90.470 80.019,90.020 80.155,89.800 80.184 C 89.580 80.213,89.443 80.447,89.495 80.704 C 89.548 80.962,89.384 81.673,89.131 82.286 C 88.878 82.899,88.704 83.548,88.745 83.730 C 88.786 83.911,88.632 83.944,88.403 83.802 C 88.174 83.661,88.065 83.418,88.160 83.264 C 88.313 83.017,85.834 82.940,83.918 83.132 C 83.477 83.176,83.143 83.695,82.974 84.600 C 82.731 85.895,82.602 86.000,81.255 86.001 C 79.420 86.003,77.200 87.313,77.200 88.394 C 77.200 89.027,76.936 89.200,75.971 89.200 C 74.473 89.200,73.600 89.999,73.600 91.371 C 73.600 92.358,73.505 92.400,71.276 92.400 C 68.687 92.400,67.719 92.916,67.528 94.400 C 67.429 95.177,67.164 95.404,66.340 95.418 C 64.855 95.443,64.138 96.171,64.234 97.557 C 64.293 98.408,64.164 98.684,63.777 98.536 C 63.481 98.422,63.005 98.477,62.719 98.658 C 62.434 98.840,62.037 98.991,61.838 98.994 C 61.460 99.000,61.376 99.362,61.020 102.522 C 60.856 103.986,60.923 104.378,61.302 104.164 C 61.670 103.956,61.685 104.007,61.360 104.362 C 61.117 104.625,60.487 104.863,59.960 104.891 C 58.304 104.978,58.000 105.526,58.000 108.422 L 58.000 111.146 56.858 111.114 C 55.031 111.062,54.800 111.433,54.800 114.424 L 54.800 117.200 53.408 117.200 C 51.743 117.200,51.453 117.910,51.663 121.474 L 51.800 123.800 50.237 123.800 C 49.260 123.800,48.603 124.008,48.485 124.356 C 48.354 124.740,48.466 124.809,48.848 124.579 C 49.293 124.311,49.306 124.362,48.919 124.842 C 48.378 125.511,48.394 128.463,48.941 128.853 C 49.265 129.084,46.509 130.243,45.967 130.104 C 45.838 130.071,45.709 130.259,45.680 130.522 C 45.324 133.727,45.321 135.078,45.667 135.725 C 45.894 136.149,45.914 136.394,45.712 136.269 C 45.509 136.144,44.794 136.375,44.123 136.784 C 42.735 137.628,42.410 138.958,42.235 144.500 C 42.208 145.331,41.999 145.600,41.380 145.600 C 40.929 145.600,40.318 145.825,40.021 146.100 C 39.586 146.504,39.544 146.493,39.803 146.038 C 40.009 145.678,39.970 145.572,39.694 145.742 C 39.457 145.888,39.262 147.131,39.259 148.504 C 39.257 149.877,39.243 151.900,39.228 153.000 L 39.200 155.000 37.700 155.000 L 36.200 155.000 36.116 158.200 C 36.069 159.960,36.024 162.030,36.015 162.800 C 36.000 164.078,35.893 164.204,34.789 164.243 C 34.124 164.267,33.465 164.402,33.324 164.543 C 32.889 164.978,32.900 168.961,33.338 169.668 C 33.625 170.130,33.621 170.499,33.327 170.868 C 33.094 171.160,32.925 171.951,32.951 172.626 C 32.995 173.713,32.892 173.830,32.041 173.668 C 31.445 173.554,31.178 173.641,31.336 173.897 C 31.478 174.126,31.281 174.285,30.896 174.255 C 30.406 174.216,30.200 174.496,30.200 175.200 C 30.200 175.750,30.085 176.380,29.944 176.600 C 29.586 177.159,29.751 184.890,30.134 185.500 C 30.348 185.842,30.155 186.019,29.524 186.061 C 29.016 186.094,28.420 186.164,28.200 186.215 C 27.980 186.266,27.607 186.328,27.371 186.354 C 26.891 186.406,26.689 188.686,26.636 194.633 C 26.598 198.870,26.640 198.782,24.666 198.828 C 24.181 198.839,24.010 199.048,24.161 199.443 C 24.287 199.772,24.223 199.938,24.019 199.812 C 23.814 199.685,23.669 199.991,23.697 200.491 C 23.724 200.991,23.712 204.190,23.670 207.600 L 23.594 213.800 22.541 214.289 C 21.962 214.558,21.305 214.665,21.082 214.527 C 20.851 214.384,20.799 214.475,20.962 214.738 C 21.119 214.992,21.065 215.200,20.842 215.200 C 20.577 215.200,20.465 218.333,20.518 224.210 L 20.600 233.220 19.549 232.989 C 17.245 232.483,17.187 232.818,17.299 246.192 C 17.355 252.865,17.278 258.249,17.129 258.156 C 16.800 257.953,16.203 259.594,16.343 260.317 C 16.425 260.739,16.290 260.739,15.608 260.317 C 14.949 259.909,14.903 259.773,15.387 259.671 C 16.312 259.476,16.166 258.037,15.228 258.108 C 14.803 258.140,14.471 258.264,14.491 258.383 C 14.511 258.502,14.385 258.926,14.211 259.326 C 14.037 259.725,14.082 260.461,14.310 260.962 C 14.538 261.464,14.578 262.111,14.399 262.402 C 13.970 263.096,14.142 284.059,14.583 284.773 C 14.828 285.169,14.777 285.233,14.401 285.001 C 13.987 284.745,13.935 285.036,14.154 286.401 C 14.506 288.606,14.642 288.800,15.836 288.800 C 16.840 288.800,16.946 288.944,17.374 290.900 C 17.581 291.843,17.814 292.000,19.008 292.000 C 20.450 292.000,20.400 291.922,20.561 294.400 C 20.587 294.795,21.111 295.042,22.100 295.124 C 23.161 295.212,23.618 295.446,23.661 295.924 C 23.694 296.296,23.744 296.780,23.771 297.000 C 23.886 297.922,24.518 298.400,25.624 298.400 C 26.596 298.400,26.800 298.565,26.800 299.351 C 26.800 300.664,27.472 301.104,29.898 301.382 C 31.668 301.584,31.947 301.527,31.747 301.006 C 31.577 300.563,31.691 300.460,32.153 300.637 C 32.506 300.773,32.696 301.045,32.574 301.242 C 32.452 301.439,32.621 301.600,32.948 301.600 C 33.407 301.600,33.473 301.853,33.234 302.700 C 32.778 304.313,33.103 304.800,34.633 304.800 C 35.920 304.800,36.000 304.879,36.000 306.157 C 36.000 307.636,36.486 308.000,38.460 308.000 C 39.472 308.000,39.615 308.122,39.400 308.800 C 39.249 309.277,39.328 309.600,39.597 309.600 C 39.844 309.600,39.939 309.775,39.807 309.988 C 39.675 310.202,40.044 310.496,40.627 310.642 C 41.334 310.820,41.803 310.724,42.037 310.354 C 42.266 309.993,42.390 309.966,42.394 310.276 C 42.397 310.538,43.075 310.808,43.900 310.876 C 45.075 310.973,45.409 311.173,45.441 311.800 C 45.558 314.107,45.595 314.226,46.000 313.600 C 46.299 313.138,46.389 313.125,46.394 313.542 C 46.398 313.932,46.846 314.041,47.992 313.932 C 49.075 313.829,49.650 313.954,49.792 314.323 C 50.125 315.192,50.021 315.451,49.600 314.800 C 49.387 314.470,49.212 314.380,49.212 314.600 C 49.212 315.664,51.739 317.200,53.490 317.200 C 54.581 317.200,55.542 317.974,55.311 318.667 C 55.227 318.920,55.375 319.261,55.641 319.425 C 55.967 319.627,56.029 319.541,55.832 319.162 C 55.672 318.853,55.817 318.939,56.154 319.354 C 56.715 320.044,57.375 320.176,61.300 320.384 C 61.465 320.393,61.600 320.724,61.600 321.120 C 61.600 322.099,62.375 322.800,63.456 322.800 C 63.949 322.800,64.457 322.968,64.584 323.173 C 64.711 323.379,65.984 323.531,67.413 323.512 C 70.344 323.473,70.272 323.442,70.461 324.800 C 70.657 326.213,71.055 326.387,74.100 326.394 C 75.993 326.398,76.802 326.251,76.806 325.900 C 76.811 325.532,76.903 325.543,77.156 325.943 C 77.388 326.309,77.886 326.401,78.686 326.225 C 80.128 325.908,80.837 326.606,80.887 328.394 L 80.923 329.643 84.933 329.569 C 88.986 329.494,90.322 330.108,89.390 331.617 C 88.705 332.725,101.791 333.366,103.748 332.320 C 104.321 332.014,104.423 332.040,104.183 332.428 C 103.969 332.774,104.055 332.864,104.453 332.712 C 104.909 332.537,105.023 332.823,104.972 334.014 C 104.886 336.019,104.473 335.955,117.474 335.976 C 129.746 335.997,129.600 336.018,129.600 334.189 C 129.600 333.036,129.759 332.829,130.824 332.595 C 132.285 332.274,132.800 331.174,132.800 328.374 C 132.800 326.548,132.875 326.396,133.800 326.350 C 134.350 326.322,135.025 326.278,135.300 326.250 C 135.575 326.223,135.856 325.615,135.925 324.900 C 135.994 324.185,136.174 323.585,136.325 323.567 C 136.476 323.548,137.022 323.487,137.537 323.431 C 138.707 323.303,139.200 322.537,139.034 321.107 C 138.921 320.142,139.042 320.000,139.972 320.000 C 140.560 320.000,141.256 319.784,141.520 319.520 C 142.106 318.934,142.185 311.761,141.609 311.405 C 140.951 310.999,134.340 310.843,133.372 311.211 C 132.437 311.566,131.173 310.694,131.765 310.102 C 131.918 309.949,132.184 310.051,132.356 310.329 C 132.547 310.637,132.690 310.281,132.722 309.418 L 132.776 308.000 129.612 308.000 L 126.448 308.000 126.324 306.500 C 126.189 304.863,126.427 304.953,121.940 304.838 C 120.592 304.803,120.452 304.684,120.125 303.300 L 119.770 301.800 117.185 301.725 C 115.763 301.683,114.465 301.638,114.300 301.625 C 114.135 301.611,114.000 300.989,114.000 300.243 C 114.000 298.754,113.088 298.063,112.149 298.842 C 111.733 299.187,111.600 299.177,111.600 298.799 C 111.600 298.455,111.217 298.377,110.367 298.547 C 109.023 298.815,107.430 298.199,107.823 297.562 C 107.958 297.344,107.828 296.868,107.534 296.506 C 107.078 295.943,107.088 295.898,107.600 296.200 C 108.118 296.505,108.125 296.461,107.651 295.877 C 107.152 295.261,107.261 295.196,108.851 295.155 C 112.222 295.069,113.428 294.953,113.885 294.671 C 114.138 294.515,114.487 294.615,114.661 294.893 C 115.165 295.700,115.166 296.383,114.663 296.288 C 114.408 296.239,114.203 296.650,114.206 297.200 C 114.212 298.193,114.238 298.200,117.848 298.200 C 121.198 298.200,121.449 298.255,121.050 298.894 C 120.710 299.436,120.783 299.741,121.386 300.294 C 121.943 300.804,122.051 300.828,121.778 300.381 C 121.570 300.041,121.735 300.131,122.145 300.581 C 123.075 301.603,132.326 302.130,131.812 301.131 C 131.662 300.839,131.917 301.030,132.379 301.556 C 132.876 302.122,133.125 302.805,132.990 303.231 C 132.755 303.970,133.910 304.897,134.905 304.769 C 135.177 304.734,137.684 304.727,140.475 304.753 L 145.549 304.800 145.675 306.074 C 145.848 307.833,146.501 307.945,156.203 307.866 C 163.751 307.805,164.404 307.855,164.450 308.500 C 164.524 309.531,164.581 309.751,164.915 310.277 C 165.355 310.968,234.565 310.968,235.132 310.277 C 235.347 310.015,235.586 309.376,235.662 308.858 L 235.800 307.915 243.987 307.900 C 253.596 307.882,254.044 307.804,254.492 306.076 L 254.823 304.800 259.911 304.754 C 262.710 304.728,265.180 304.673,265.400 304.631 C 266.651 304.391,267.200 303.820,267.200 302.757 L 267.200 301.600 270.500 301.582 C 277.575 301.544,279.200 301.134,279.200 299.386 C 279.200 298.457,279.333 298.398,281.500 298.361 C 285.623 298.290,285.706 298.269,285.863 297.256 C 285.979 296.500,285.868 296.360,285.304 296.557 C 284.710 296.763,284.722 296.708,285.376 296.201 C 286.129 295.619,286.130 295.600,285.396 295.600 C 284.963 295.600,284.802 295.461,285.020 295.274 C 285.229 295.095,287.023 295.022,289.007 295.111 L 292.614 295.273 292.465 296.836 C 292.347 298.070,292.151 298.400,291.534 298.400 C 291.068 298.400,290.862 298.577,291.025 298.840 C 291.220 299.156,291.075 299.161,290.510 298.859 C 289.883 298.523,287.889 298.475,286.385 298.759 C 286.267 298.782,286.126 299.376,286.073 300.079 C 285.951 301.680,286.262 301.519,283.011 301.670 L 280.229 301.800 279.875 303.300 C 279.605 304.444,279.316 304.807,278.660 304.828 C 274.352 304.966,273.796 305.042,273.750 305.500 C 273.723 305.775,273.678 306.450,273.650 307.000 C 273.601 307.980,273.535 308.000,270.375 308.000 L 267.149 308.000 267.275 309.300 C 267.347 310.055,267.604 310.560,267.886 310.505 C 268.172 310.449,268.275 310.661,268.136 311.022 C 268.007 311.359,267.805 311.538,267.687 311.421 C 267.570 311.303,267.197 311.430,266.860 311.703 C 266.469 312.020,266.346 312.034,266.521 311.742 C 266.672 311.490,266.517 311.177,266.177 311.046 C 265.773 310.892,265.658 310.970,265.845 311.273 C 266.048 311.601,265.907 311.638,265.366 311.400 C 264.404 310.978,261.123 310.752,261.354 311.124 C 261.448 311.276,260.777 311.400,259.863 311.400 L 258.200 311.400 258.154 315.200 C 258.105 319.332,258.354 320.000,259.949 320.001 C 260.874 320.002,261.013 320.178,261.105 321.473 C 261.232 323.238,261.219 323.223,262.879 323.563 C 263.612 323.713,264.216 324.091,264.238 324.416 C 264.383 326.531,264.348 326.489,265.900 326.341 L 267.400 326.197 267.266 327.813 C 267.068 330.211,267.685 332.200,268.625 332.200 C 269.733 332.200,270.367 332.938,270.475 334.352 C 270.602 336.012,270.148 335.951,282.460 335.961 C 295.181 335.971,295.342 335.950,295.102 334.311 C 294.918 333.059,295.955 332.260,297.166 332.721 C 297.569 332.874,297.633 332.773,297.389 332.368 C 297.104 331.895,297.153 331.886,297.680 332.313 C 298.513 332.988,308.059 332.941,308.494 332.260 C 308.708 331.925,308.789 331.936,308.794 332.300 C 308.797 332.575,308.999 332.800,309.243 332.800 C 309.486 332.800,309.584 332.536,309.460 332.213 C 309.336 331.890,309.412 331.516,309.627 331.383 C 309.843 331.250,309.970 331.316,309.910 331.530 C 309.849 331.745,309.980 331.983,310.200 332.060 C 310.420 332.137,310.656 331.615,310.725 330.900 L 310.851 329.600 314.725 329.557 C 316.856 329.534,318.941 329.489,319.359 329.457 C 320.364 329.381,320.636 327.660,319.745 327.009 C 319.218 326.624,319.188 326.455,319.601 326.199 C 319.970 325.971,320.028 326.032,319.796 326.406 C 319.549 326.806,319.657 326.862,320.234 326.635 C 320.655 326.469,322.766 326.353,324.925 326.375 C 328.938 326.418,330.136 326.185,329.143 325.556 C 328.743 325.303,328.732 325.211,329.100 325.206 C 329.375 325.203,329.600 324.840,329.600 324.400 C 329.600 323.850,329.881 323.586,330.500 323.557 C 330.995 323.533,332.300 323.474,333.400 323.426 C 336.452 323.293,338.135 322.553,338.328 321.259 C 338.398 320.787,338.707 320.400,339.015 320.400 C 339.364 320.400,339.493 320.137,339.357 319.700 C 339.150 319.033,339.161 319.033,339.590 319.700 C 340.011 320.356,342.264 320.751,341.861 320.098 C 341.758 319.932,342.243 319.797,342.937 319.798 C 343.966 319.800,344.311 319.563,344.800 318.524 C 345.282 317.499,345.675 317.224,346.800 317.124 C 347.570 317.056,348.163 316.799,348.118 316.553 C 347.979 315.801,349.864 314.257,350.220 314.832 C 350.400 315.124,350.358 315.221,350.115 315.071 C 349.891 314.932,349.385 315.175,348.991 315.609 C 348.370 316.296,348.359 316.400,348.909 316.400 C 349.785 316.400,350.891 315.214,350.636 314.548 C 350.475 314.129,350.893 314.000,352.413 314.000 C 353.506 314.000,354.423 313.820,354.450 313.600 C 354.478 313.380,354.545 313.020,354.600 312.800 C 354.655 312.580,354.723 312.040,354.750 311.600 C 354.794 310.896,355.083 310.800,357.171 310.800 C 359.766 310.800,360.800 310.189,360.800 308.658 C 360.800 307.947,361.015 307.784,361.900 307.828 C 363.624 307.914,364.000 307.615,364.000 306.157 C 364.000 305.083,364.167 304.790,364.800 304.750 C 365.240 304.723,365.780 304.655,366.000 304.600 C 366.220 304.545,366.571 304.478,366.781 304.450 C 366.991 304.423,367.094 303.862,367.011 303.205 C 366.928 302.548,367.038 301.900,367.257 301.765 C 367.476 301.630,367.552 301.222,367.426 300.860 C 367.258 300.373,367.356 300.404,367.799 300.976 C 368.232 301.536,368.402 301.592,368.406 301.176 C 368.411 300.712,368.477 300.703,368.748 301.129 C 369.550 302.395,373.200 300.938,373.200 299.351 C 373.200 298.476,373.767 298.156,374.942 298.367 C 375.779 298.517,376.400 297.387,376.400 295.714 C 376.400 294.262,376.550 293.886,377.200 293.716 C 378.088 293.484,378.278 292.574,377.500 292.274 C 377.225 292.168,377.379 292.100,377.841 292.121 C 378.898 292.172,378.654 293.608,377.539 293.900 C 376.657 294.131,376.542 295.200,377.400 295.200 C 377.730 295.200,378.003 294.975,378.006 294.700 C 378.010 294.366,378.138 294.398,378.389 294.797 C 378.696 295.282,378.862 295.298,379.280 294.880 C 379.698 294.462,379.682 294.296,379.197 293.989 C 378.798 293.738,378.766 293.610,379.100 293.606 C 379.375 293.603,379.600 293.251,379.600 292.824 C 379.600 292.216,379.925 292.021,381.100 291.924 C 382.080 291.843,382.619 291.592,382.654 291.200 C 382.683 290.870,382.728 290.290,382.754 289.911 C 382.782 289.491,383.298 289.094,384.076 288.892 C 385.890 288.422,385.936 288.047,385.964 273.485 C 385.992 259.189,385.914 258.194,384.762 258.107 C 384.334 258.075,384.087 258.218,384.215 258.424 C 384.584 259.021,383.748 258.860,383.229 258.235 C 382.897 257.835,382.765 254.834,382.777 248.013 C 382.790 240.434,382.687 238.417,382.297 238.637 C 381.906 238.857,381.907 238.802,382.300 238.379 C 382.948 237.681,382.948 235.326,382.300 235.065 C 381.900 234.904,381.900 234.857,382.300 234.832 C 382.992 234.788,382.925 234.182,382.142 233.400 C 381.723 232.980,381.144 232.828,380.542 232.979 C 379.460 233.250,379.553 234.277,379.586 222.400 C 379.603 216.332,379.374 214.132,378.755 214.399 C 378.670 214.435,378.105 214.341,377.500 214.189 C 376.285 213.885,376.288 213.905,376.381 203.400 C 376.414 199.603,376.233 198.958,375.100 198.861 C 374.715 198.827,374.175 198.770,373.900 198.732 C 373.525 198.682,373.400 197.173,373.400 192.718 C 373.400 186.712,373.168 185.748,371.836 186.233 C 370.689 186.650,370.384 185.691,370.357 181.572 C 370.320 176.143,369.980 174.183,369.088 174.255 C 368.714 174.285,368.507 174.150,368.628 173.955 C 368.749 173.760,368.477 173.600,368.024 173.600 C 367.246 173.600,367.200 173.371,367.194 169.500 C 367.187 164.889,367.017 164.404,365.367 164.284 L 364.200 164.200 364.000 159.625 L 363.800 155.050 362.400 154.892 C 360.595 154.687,360.750 155.113,360.670 150.137 C 360.619 147.003,360.461 145.787,360.100 145.750 C 359.825 145.723,359.188 145.678,358.685 145.650 C 357.806 145.602,357.774 145.482,357.894 142.630 C 357.968 140.894,357.849 139.554,357.610 139.406 C 357.384 139.267,357.200 138.795,357.200 138.358 C 357.200 137.893,356.702 137.280,356.003 136.881 C 354.937 136.275,354.800 135.979,354.755 134.200 C 354.690 131.587,354.299 129.830,353.800 129.905 C 352.060 130.166,351.635 129.562,351.517 126.661 C 351.392 123.606,351.540 123.791,349.100 123.643 C 348.598 123.612,348.400 123.260,348.400 122.400 C 348.400 121.740,348.220 121.200,348.000 121.200 C 347.780 121.200,347.600 121.009,347.600 120.776 C 347.600 120.543,347.769 120.457,347.976 120.585 C 348.192 120.719,348.320 120.092,348.276 119.109 C 348.202 117.439,348.166 117.397,346.700 117.276 C 345.875 117.208,345.186 116.938,345.168 116.676 C 345.151 116.414,345.164 115.075,345.196 113.700 C 345.252 111.346,345.201 111.198,344.328 111.157 C 341.700 111.037,341.854 111.228,341.961 108.242 C 342.066 105.309,341.800 104.818,340.100 104.806 C 339.442 104.802,339.194 104.558,339.177 103.900 C 339.071 99.743,338.773 98.945,337.195 98.599 C 336.319 98.406,335.998 98.105,335.994 97.468 C 335.983 95.867,334.397 94.772,333.349 95.642 C 332.936 95.985,332.800 95.981,332.800 95.625 C 332.800 95.365,332.646 95.248,332.458 95.364 C 332.270 95.481,332.184 95.176,332.267 94.688 C 332.547 93.053,331.841 92.600,329.016 92.600 L 326.402 92.600 326.401 90.949 C 326.400 89.311,326.389 89.299,324.900 89.285 C 322.539 89.263,322.400 89.230,322.400 88.689 C 322.400 87.612,319.906 85.923,318.548 86.082 C 317.366 86.220,317.237 86.124,317.013 84.930 C 316.698 83.248,316.294 83.033,313.400 83.003 C 311.041 82.979,310.998 82.959,310.869 81.789 C 310.686 80.121,310.404 79.946,307.643 79.787 C 304.727 79.618,304.400 79.455,304.400 78.164 C 304.400 76.947,303.956 76.766,300.747 76.673 C 298.558 76.610,298.190 76.491,298.062 75.800 C 297.838 74.592,297.140 73.922,296.327 74.135 C 295.927 74.240,295.700 74.162,295.823 73.963 C 295.946 73.763,295.242 73.600,294.257 73.600 C 293.199 73.600,292.384 73.805,292.265 74.100 C 292.104 74.500,292.057 74.500,292.032 74.100 C 292.013 73.807,291.451 73.600,290.671 73.600 C 289.467 73.600,289.306 73.458,288.971 72.100 L 288.600 70.600 284.205 70.470 C 279.824 70.340,279.043 70.076,279.502 68.878 C 279.997 67.588,278.442 67.200,272.781 67.200 L 267.316 67.200 266.954 65.938 C 266.755 65.243,266.323 64.632,265.996 64.579 C 265.668 64.526,264.905 64.355,264.300 64.198 C 263.541 64.002,263.200 64.066,263.200 64.406 C 263.200 64.742,263.041 64.774,262.700 64.506 C 262.059 64.004,256.884 63.940,256.581 64.431 C 256.442 64.656,256.056 64.644,255.600 64.400 C 254.736 63.938,250.761 64.013,251.053 64.486 C 251.160 64.659,251.057 64.800,250.824 64.800 C 250.591 64.800,250.400 64.627,250.400 64.415 C 250.400 63.933,246.864 63.972,246.565 64.457 C 246.444 64.653,246.207 64.728,246.039 64.624 C 245.688 64.407,245.657 64.571,245.439 67.727 C 245.253 70.420,245.257 70.413,243.746 70.529 C 242.602 70.617,242.600 70.623,242.600 73.409 L 242.600 76.200 243.869 76.323 C 245.008 76.433,245.165 76.610,245.408 78.046 L 245.678 79.646 250.402 79.523 C 253.000 79.455,255.042 79.535,254.939 79.700 C 254.837 79.865,254.927 80.000,255.139 80.000 C 255.351 80.000,255.439 80.328,255.335 80.728 C 254.953 82.189,256.793 82.731,262.300 82.781 C 263.927 82.796,264.400 82.940,264.400 83.424 C 264.400 83.767,264.560 83.949,264.755 83.828 C 264.950 83.707,265.085 83.922,265.055 84.304 C 265.021 84.738,265.262 84.979,265.696 84.945 C 266.078 84.915,266.306 85.028,266.202 85.196 C 265.929 85.639,268.107 86.000,271.050 86.000 C 273.317 86.000,273.606 86.089,273.650 86.800 C 273.749 88.390,273.812 88.524,274.600 88.832 C 275.040 89.003,276.435 89.156,277.700 89.172 C 279.890 89.199,280.238 89.403,280.033 90.542 C 279.858 91.516,281.024 92.000,283.549 92.001 L 286.200 92.002 286.245 93.243 C 286.269 93.926,286.539 94.643,286.845 94.836 C 287.308 95.129,287.301 95.194,286.800 95.226 C 286.470 95.248,285.660 95.320,285.000 95.387 C 282.969 95.594,282.521 95.321,282.715 94.000 C 282.828 93.225,282.699 92.746,282.345 92.629 C 281.545 92.363,275.647 92.152,275.796 92.394 C 275.866 92.507,275.492 92.626,274.964 92.658 C 274.378 92.693,274.108 92.550,274.268 92.290 C 274.432 92.025,274.285 91.959,273.878 92.115 C 273.519 92.252,273.119 92.193,272.989 91.983 C 272.859 91.772,272.942 91.600,273.174 91.600 C 273.405 91.600,273.519 91.195,273.427 90.700 C 273.335 90.205,273.246 89.665,273.230 89.500 C 273.213 89.335,271.150 89.200,268.645 89.200 L 264.089 89.200 263.834 87.841 C 263.499 86.055,263.145 85.986,254.908 86.103 L 248.128 86.200 248.295 84.755 C 248.467 83.265,247.415 82.205,246.782 83.229 C 246.606 83.515,246.409 83.538,246.257 83.292 C 245.963 82.816,239.200 82.815,239.200 83.291 C 239.200 83.477,238.884 83.459,238.497 83.252 C 238.111 83.045,235.235 82.904,232.107 82.938 L 226.420 83.000 226.184 81.928 C 225.904 80.651,225.248 80.034,224.182 80.045 C 223.752 80.050,222.635 79.928,221.700 79.774 C 220.495 79.576,220.000 79.633,220.000 79.971 C 220.000 80.256,219.800 80.319,219.500 80.127 C 218.822 79.692,183.810 79.589,181.810 80.016 C 180.757 80.241,180.130 80.210,179.954 79.926 C 179.792 79.664,179.164 79.603,178.344 79.771 C 177.605 79.922,176.550 80.051,176.000 80.058 C 174.643 80.075,173.928 80.743,174.234 81.707 C 174.401 82.232,174.336 82.408,174.043 82.226 C 173.799 82.076,173.600 82.188,173.600 82.476 C 173.600 82.895,171.501 82.994,163.100 82.970 C 151.887 82.939,151.600 82.988,151.600 84.949 L 151.600 86.200 147.708 86.127 C 145.208 86.081,143.607 86.224,143.231 86.527 C 142.770 86.900,142.713 86.890,142.959 86.480 C 143.209 86.065,142.615 85.992,140.032 86.117 C 136.371 86.294,136.302 86.329,136.243 87.989 L 136.200 89.198 132.400 89.243 C 130.310 89.268,128.181 89.254,127.668 89.211 C 126.902 89.148,126.761 89.300,126.877 90.067 C 126.955 90.580,127.210 90.965,127.443 90.922 C 127.676 90.879,127.867 91.102,127.867 91.416 C 127.867 91.877,127.750 91.892,127.264 91.494 C 126.752 91.075,126.696 91.136,126.893 91.900 C 127.021 92.395,126.962 92.800,126.763 92.800 C 126.563 92.800,126.400 92.653,126.400 92.474 C 126.400 92.161,118.710 92.271,117.727 92.597 C 117.467 92.683,117.197 93.349,117.127 94.077 C 116.995 95.447,116.742 95.526,113.420 95.233 C 113.211 95.215,113.256 94.984,113.520 94.720 C 114.150 94.090,114.137 92.802,113.500 92.794 C 113.167 92.790,113.200 92.658,113.600 92.400 C 113.930 92.187,115.220 92.009,116.467 92.006 C 119.475 91.998,120.000 91.753,120.000 90.357 C 120.000 89.216,121.206 88.842,123.855 89.160 C 125.188 89.320,126.400 88.391,126.400 87.210 L 126.400 86.000 129.217 86.000 C 132.109 86.000,132.410 85.878,134.412 83.897 C 135.436 82.884,135.789 82.791,138.763 82.759 C 140.543 82.740,142.000 82.592,142.000 82.430 C 142.000 82.268,142.447 81.896,142.993 81.604 C 143.540 81.311,144.092 80.741,144.220 80.336 C 144.430 79.676,144.943 79.600,149.213 79.600 C 154.331 79.600,154.800 79.401,154.800 77.226 C 154.800 76.573,155.054 76.400,156.010 76.400 C 158.023 76.400,158.789 70.725,156.800 70.546 C 156.470 70.517,155.909 70.472,155.554 70.446 C 155.045 70.410,154.865 69.800,154.706 67.586 C 154.443 63.907,154.688 63.987,144.800 64.356 C 144.470 64.368,142.805 64.299,141.100 64.203 C 138.907 64.079,138.000 64.164,138.000 64.494 C 138.000 64.841,137.877 64.837,137.520 64.480 C 136.930 63.890,136.527 63.871,136.190 64.416 M276.876 69.916 C 277.226 70.266,277.031 70.357,276.070 70.289 C 275.372 70.240,274.801 70.005,274.801 69.767 C 274.800 69.208,276.273 69.313,276.876 69.916 M177.800 81.600 C 177.664 81.820,177.738 82.000,177.964 82.000 C 178.190 82.000,178.259 82.302,178.117 82.671 C 177.888 83.270,177.830 83.259,177.580 82.571 C 177.310 81.827,177.432 81.200,177.847 81.200 C 177.957 81.200,177.936 81.380,177.800 81.600 M308.394 82.033 C 308.397 81.722,308.494 81.561,308.609 81.675 C 308.723 81.790,308.645 82.315,308.434 82.842 C 308.223 83.369,308.039 83.590,308.025 83.333 C 308.011 83.076,307.893 82.536,307.762 82.133 C 307.565 81.523,307.597 81.501,307.956 82.000 C 308.313 82.496,308.389 82.502,308.394 82.033 M110.759 95.374 C 110.664 95.470,110.050 95.620,109.394 95.707 C 108.737 95.795,108.185 96.121,108.163 96.433 C 108.140 96.745,108.094 97.416,108.061 97.924 C 108.027 98.432,107.820 98.736,107.600 98.600 C 107.380 98.464,107.200 98.573,107.200 98.843 C 107.200 99.113,107.095 99.229,106.968 99.101 C 106.840 98.973,106.974 98.448,107.266 97.934 C 107.777 97.033,107.854 96.786,107.954 95.700 C 107.982 95.399,108.585 95.200,109.467 95.200 C 110.273 95.200,110.855 95.278,110.759 95.374 M292.400 96.520 C 292.400 97.246,292.625 98.069,292.900 98.349 C 293.301 98.756,293.281 98.832,292.800 98.729 C 292.458 98.655,292.114 97.999,292.000 97.200 C 291.824 95.968,291.632 95.770,290.400 95.553 L 289.000 95.305 290.700 95.253 C 292.367 95.201,292.400 95.225,292.400 96.520 M102.971 98.668 C 103.098 99.000,103.017 99.134,102.778 98.986 C 102.551 98.846,102.115 98.938,101.810 99.191 C 101.378 99.550,101.169 99.490,100.864 98.920 C 100.529 98.294,100.637 98.182,101.612 98.142 C 102.267 98.115,102.844 98.339,102.971 98.668 M304.119 102.313 C 303.983 102.691,304.013 102.874,304.184 102.719 C 304.355 102.565,304.744 102.687,305.048 102.990 C 305.766 103.709,305.766 104.235,305.047 103.639 C 304.622 103.286,304.442 103.313,304.273 103.753 C 304.130 104.127,304.398 104.413,305.043 104.575 C 305.611 104.718,305.919 105.007,305.766 105.254 C 305.602 105.520,305.404 105.538,305.250 105.303 C 305.113 105.092,304.734 104.834,304.409 104.730 C 304.083 104.625,303.813 104.104,303.809 103.571 C 303.804 103.039,303.590 102.603,303.333 102.602 C 303.077 102.601,302.717 102.436,302.533 102.236 C 302.343 102.028,302.396 101.984,302.658 102.134 C 302.910 102.278,303.224 102.115,303.355 101.772 C 303.681 100.923,304.428 101.451,304.119 102.313 M42.561 148.243 C 42.662 148.505,42.307 148.801,41.768 148.904 C 41.016 149.048,40.889 148.975,41.213 148.584 C 41.513 148.223,41.486 148.021,41.117 147.880 C 40.833 147.771,41.000 147.701,41.490 147.725 C 41.979 147.749,42.461 147.982,42.561 148.243 M151.600 187.186 C 151.600 188.283,152.580 189.309,153.484 189.158 C 153.658 189.129,154.745 189.127,155.900 189.153 L 158.000 189.200 158.000 190.600 C 158.000 191.936,158.065 192.000,159.413 192.000 C 160.839 192.000,160.937 192.105,161.374 194.100 C 161.571 195.000,161.832 195.200,162.808 195.200 C 163.601 195.200,164.000 195.401,164.000 195.800 C 164.000 196.130,164.225 196.403,164.500 196.406 C 164.889 196.411,164.886 196.484,164.486 196.738 C 163.534 197.342,164.398 198.400,165.843 198.400 C 167.207 198.400,167.593 199.483,167.231 202.295 C 167.089 203.395,168.036 204.400,169.214 204.400 L 170.400 204.400 170.424 208.900 C 170.448 213.507,170.575 215.515,170.944 217.100 C 171.060 217.595,171.023 218.000,170.863 218.000 C 170.703 218.000,170.524 220.558,170.465 223.684 C 170.363 229.069,169.933 231.186,169.186 229.978 C 168.419 228.737,167.142 230.383,167.206 232.529 C 167.310 236.005,167.337 235.940,165.700 236.076 C 164.246 236.196,164.201 236.246,164.246 237.700 C 164.291 239.140,164.240 239.200,162.970 239.200 C 161.501 239.200,161.000 239.709,161.000 241.200 C 161.000 242.119,160.839 242.208,159.000 242.305 C 156.012 242.461,155.092 242.741,155.351 243.417 C 155.474 243.738,155.380 244.000,155.141 244.000 C 154.902 244.000,154.789 244.316,154.890 244.703 C 155.053 245.324,154.724 245.411,152.037 245.455 C 150.367 245.483,147.920 245.541,146.600 245.584 C 144.658 245.648,141.103 245.524,136.500 245.232 C 136.225 245.214,135.997 244.795,135.994 244.300 C 135.983 242.738,135.425 242.294,133.681 242.461 C 132.794 242.545,132.159 242.466,132.271 242.285 C 132.696 241.598,131.980 239.922,131.362 240.159 C 130.988 240.303,130.861 240.225,131.029 239.953 C 131.209 239.662,131.021 239.603,130.471 239.777 C 129.761 240.003,129.578 239.802,129.196 238.387 C 128.872 237.182,128.589 236.795,128.155 236.962 C 127.773 237.108,127.661 237.026,127.842 236.732 C 128.034 236.421,127.849 236.346,127.263 236.500 C 126.478 236.705,126.400 236.570,126.400 235.005 C 126.400 233.172,125.771 232.565,124.344 233.018 C 123.881 233.165,123.588 233.054,123.569 232.727 C 123.552 232.437,123.493 231.198,123.438 229.973 C 123.315 227.246,123.062 226.800,121.637 226.800 L 120.522 226.800 120.281 221.702 C 119.867 212.948,120.315 207.637,121.491 207.341 C 122.783 207.017,123.325 205.556,123.571 201.743 C 123.587 201.492,124.042 201.176,124.582 201.040 C 125.648 200.773,126.394 198.909,126.398 196.500 C 126.400 195.254,126.465 195.200,127.977 195.200 C 129.542 195.200,129.555 195.188,129.677 193.525 C 129.796 191.901,129.842 191.851,131.200 191.853 C 131.970 191.854,132.819 191.663,133.086 191.428 C 133.353 191.192,133.830 190.785,134.145 190.522 C 134.461 190.260,134.790 189.831,134.877 189.570 C 134.971 189.286,135.790 189.110,136.917 189.133 C 137.958 189.154,138.800 188.988,138.800 188.762 C 138.800 188.537,138.976 188.462,139.192 188.595 C 139.811 188.978,141.203 188.045,141.609 186.976 C 141.974 186.016,142.060 186.000,146.790 186.000 L 151.600 186.000 151.600 187.186 M258.391 186.976 C 258.789 188.024,260.185 188.980,260.781 188.612 C 260.981 188.488,261.251 188.559,261.380 188.768 C 261.510 188.978,262.370 189.139,263.292 189.127 C 264.214 189.114,265.036 189.308,265.120 189.559 C 265.398 190.395,266.497 191.248,267.031 191.043 C 267.367 190.915,267.478 191.052,267.337 191.420 C 267.160 191.880,267.558 192.007,269.257 192.032 C 270.436 192.049,271.175 192.154,270.900 192.265 C 269.470 192.842,270.354 195.200,272.000 195.200 L 273.600 195.200 273.600 196.800 C 273.600 197.680,273.792 198.400,274.027 198.400 C 274.280 198.400,274.344 198.746,274.184 199.250 C 274.004 199.818,274.060 200.010,274.353 199.829 C 274.637 199.654,274.698 199.801,274.526 200.249 C 274.321 200.784,274.416 200.879,274.951 200.674 C 275.362 200.516,275.543 200.569,275.397 200.805 C 275.263 201.022,275.487 201.200,275.896 201.200 C 276.467 201.200,276.642 201.502,276.648 202.500 C 276.667 205.403,277.191 206.839,278.387 207.255 C 279.641 207.693,280.119 208.856,279.785 210.661 C 279.669 211.287,279.730 213.032,279.920 214.537 C 280.127 216.178,280.113 218.162,279.883 219.494 C 279.630 220.965,279.640 222.167,279.913 223.057 C 280.183 223.936,280.189 224.483,279.930 224.643 C 279.713 224.777,279.643 225.318,279.775 225.844 C 279.994 226.714,279.891 226.800,278.631 226.800 C 276.871 226.800,276.762 227.008,276.730 230.418 L 276.703 233.242 275.552 232.989 C 274.809 232.826,274.400 232.898,274.400 233.192 C 274.400 233.442,274.208 233.529,273.973 233.383 C 273.739 233.238,273.580 233.363,273.621 233.660 C 273.882 235.566,273.577 236.719,272.860 236.531 C 271.869 236.273,270.707 237.476,271.013 238.442 C 271.180 238.966,271.060 239.200,270.627 239.200 C 270.282 239.200,270.000 239.374,270.000 239.587 C 270.000 239.801,269.728 239.870,269.395 239.743 C 268.547 239.417,267.600 240.318,267.600 241.449 C 267.600 242.287,267.416 242.400,266.043 242.400 C 264.376 242.400,263.899 242.928,264.274 244.361 C 264.511 245.267,263.993 245.414,261.254 245.222 C 260.415 245.163,260.003 245.282,260.162 245.538 C 260.329 245.809,260.037 245.840,259.303 245.630 C 258.019 245.261,255.698 245.518,255.359 246.066 C 255.220 246.292,254.946 246.295,254.664 246.074 C 253.996 245.548,249.600 245.174,249.600 245.643 C 249.600 245.873,249.270 245.852,248.783 245.591 C 248.333 245.350,247.404 245.209,246.718 245.277 C 245.635 245.384,245.428 245.246,245.152 244.234 C 244.726 242.673,244.208 242.413,241.500 242.406 C 239.951 242.402,239.187 242.237,239.161 241.900 C 239.139 241.625,239.094 240.950,239.061 240.400 C 239.009 239.546,238.780 239.382,237.500 239.276 C 236.429 239.187,235.988 238.958,235.957 238.476 C 235.934 238.104,235.889 237.440,235.857 237.000 C 235.822 236.508,235.492 236.178,235.000 236.143 C 234.560 236.111,233.896 236.066,233.524 236.043 C 233.042 236.012,232.813 235.571,232.724 234.500 C 232.656 233.675,232.405 233.035,232.167 233.078 C 231.928 233.121,231.733 232.898,231.733 232.584 C 231.733 232.153,231.865 232.122,232.267 232.455 C 232.692 232.808,232.800 232.647,232.800 231.663 C 232.800 230.274,231.961 229.621,230.400 229.796 L 229.400 229.908 229.494 224.109 C 229.546 220.919,229.436 218.037,229.250 217.703 C 229.059 217.362,229.087 216.405,229.314 215.509 C 229.633 214.253,229.601 213.846,229.159 213.566 C 228.760 213.313,228.743 213.210,229.100 213.206 C 229.468 213.202,229.600 212.088,229.600 208.987 C 229.600 205.619,229.720 204.729,230.198 204.546 C 230.526 204.419,230.672 204.110,230.521 203.858 C 230.370 203.606,230.570 203.663,230.967 203.985 C 231.607 204.505,231.748 204.486,232.243 203.808 C 232.935 202.863,232.962 202.002,232.300 201.994 C 231.937 201.989,231.950 201.893,232.349 201.640 C 232.708 201.413,232.840 200.791,232.729 199.846 C 232.571 198.489,232.629 198.400,233.680 198.400 C 234.306 198.400,234.803 198.179,234.806 197.900 C 234.810 197.567,234.942 197.600,235.200 198.000 C 235.545 198.533,235.595 198.533,235.655 198.000 C 235.692 197.670,235.764 197.220,235.815 197.000 C 235.866 196.780,235.928 196.220,235.954 195.755 C 235.992 195.064,236.193 194.948,237.063 195.114 C 238.283 195.347,239.200 194.408,239.200 192.924 C 239.200 192.135,239.404 192.000,240.600 192.000 C 241.933 192.000,242.000 191.933,242.000 190.600 L 242.000 189.200 244.567 189.200 C 247.987 189.200,248.400 189.001,248.400 187.357 L 248.400 186.000 253.210 186.000 C 257.940 186.000,258.026 186.016,258.391 186.976 M381.200 235.400 C 381.200 236.153,380.677 236.418,380.007 236.004 C 379.549 235.721,379.543 235.551,379.971 235.035 C 380.545 234.344,381.200 234.539,381.200 235.400 M249.377 246.763 C 249.500 246.962,249.241 247.031,248.801 246.916 C 248.307 246.787,248.000 246.904,248.000 247.220 C 248.000 247.502,247.892 247.625,247.760 247.493 C 247.402 247.135,247.967 246.400,248.600 246.400 C 248.904 246.400,249.254 246.563,249.377 246.763 M257.783 247.228 C 257.656 247.432,257.754 247.600,258.000 247.600 C 258.246 247.600,258.336 247.780,258.200 248.000 C 257.764 248.705,257.360 248.429,257.360 247.426 C 257.360 246.890,257.507 246.542,257.687 246.653 C 257.866 246.764,257.909 247.023,257.783 247.228 M104.999 292.796 C 105.138 293.234,105.139 293.774,105.002 293.996 C 104.865 294.218,104.943 294.400,105.176 294.400 C 105.409 294.400,105.600 294.580,105.600 294.800 C 105.600 295.888,104.438 295.067,104.325 293.900 C 104.204 292.639,104.133 292.593,102.000 292.365 L 99.800 292.130 102.273 292.065 C 104.423 292.009,104.779 292.104,104.999 292.796 M293.200 292.600 C 293.200 292.930,292.919 293.200,292.576 293.200 C 292.233 293.200,292.056 293.368,292.183 293.572 C 292.309 293.777,292.202 294.075,291.945 294.234 C 291.652 294.415,291.584 294.350,291.762 294.062 C 291.919 293.808,291.857 293.600,291.624 293.600 C 291.391 293.600,291.200 293.409,291.200 293.176 C 291.200 292.943,291.369 292.857,291.576 292.985 C 291.783 293.113,292.188 292.950,292.476 292.624 C 293.141 291.871,293.200 291.869,293.200 292.600 M299.892 292.241 C 299.760 292.374,298.785 292.509,297.726 292.541 L 295.800 292.600 295.804 294.037 C 295.807 295.233,295.684 295.443,295.077 295.284 C 294.560 295.149,294.472 294.968,294.774 294.666 C 295.008 294.432,295.200 293.736,295.200 293.120 C 295.200 292.014,295.232 292.000,297.667 292.000 C 299.023 292.000,300.025 292.108,299.892 292.241 M366.849 301.561 C 366.546 301.753,366.420 302.109,366.570 302.351 C 366.738 302.623,366.615 302.704,366.246 302.562 C 365.484 302.270,365.876 301.198,366.743 301.206 C 367.272 301.211,367.293 301.280,366.849 301.561 M230.121 309.060 C 230.018 309.329,229.679 309.452,229.367 309.332 C 228.556 309.021,228.667 308.571,229.555 308.571 C 229.985 308.571,230.228 308.782,230.121 309.060 M51.600 314.025 C 51.600 313.765,51.796 313.674,52.035 313.822 C 52.348 314.015,52.347 314.213,52.032 314.528 C 51.715 314.845,51.402 314.756,50.897 314.205 C 50.234 313.481,50.234 313.470,50.900 313.971 C 51.408 314.353,51.600 314.368,51.600 314.025 M349.377 314.167 C 348.539 314.780,348.160 314.713,348.584 314.027 C 348.729 313.792,349.141 313.600,349.500 313.600 C 350.046 313.600,350.026 313.693,349.377 314.167 M82.605 327.969 C 82.640 328.449,82.465 328.646,82.120 328.514 C 81.742 328.369,81.702 328.159,81.986 327.816 C 82.210 327.547,82.305 327.208,82.197 327.063 C 82.088 326.918,82.124 326.894,82.275 327.008 C 82.426 327.123,82.575 327.555,82.605 327.969 M308.571 329.900 C 308.372 330.065,308.097 330.350,307.960 330.534 C 307.823 330.717,307.602 330.582,307.468 330.234 C 307.293 329.777,307.464 329.600,308.079 329.600 C 308.549 329.600,308.770 329.735,308.571 329.900 M271.855 333.000 C 271.715 333.365,271.855 333.600,272.213 333.600 C 272.536 333.600,272.800 333.774,272.800 333.987 C 272.800 334.201,272.530 334.271,272.200 334.145 C 271.849 334.010,271.597 334.140,271.594 334.457 C 271.589 334.899,271.521 334.895,271.231 334.436 C 271.010 334.088,271.049 333.590,271.333 333.136 C 271.888 332.247,272.173 332.173,271.855 333.000 " stroke="none" fill="#8c9cfc" fill-rule="evenodd"></path><path id="path1" d="M143.600 64.157 C 143.600 64.546,144.727 64.692,145.236 64.369 C 145.647 64.109,145.501 64.011,144.700 64.006 C 144.095 64.003,143.600 64.071,143.600 64.157 M274.801 69.767 C 274.801 70.005,275.372 70.240,276.070 70.289 C 277.031 70.357,277.226 70.266,276.876 69.916 C 276.273 69.313,274.800 69.208,274.801 69.767 M180.000 79.990 C 180.000 80.214,180.553 80.275,181.300 80.133 C 183.123 79.786,183.181 79.600,181.467 79.600 C 180.660 79.600,180.000 79.776,180.000 79.990 M197.100 79.897 C 198.695 79.973,201.305 79.973,202.900 79.897 C 204.495 79.821,203.190 79.759,200.000 79.759 C 196.810 79.759,195.505 79.821,197.100 79.897 M217.200 79.756 C 217.200 79.842,217.830 79.986,218.600 80.076 C 219.370 80.166,220.000 80.096,220.000 79.920 C 220.000 79.744,219.370 79.600,218.600 79.600 C 217.830 79.600,217.200 79.670,217.200 79.756 M177.474 81.500 C 177.378 81.665,177.426 82.147,177.580 82.571 C 177.830 83.259,177.888 83.270,178.117 82.671 C 178.259 82.302,178.190 82.000,177.964 82.000 C 177.738 82.000,177.664 81.820,177.800 81.600 C 177.936 81.380,177.957 81.200,177.847 81.200 C 177.737 81.200,177.569 81.335,177.474 81.500 M307.762 82.133 C 307.893 82.536,308.011 83.076,308.025 83.333 C 308.039 83.590,308.223 83.369,308.434 82.842 C 308.645 82.315,308.723 81.790,308.609 81.675 C 308.494 81.561,308.397 81.722,308.394 82.033 C 308.389 82.502,308.313 82.496,307.956 82.000 C 307.597 81.501,307.565 81.523,307.762 82.133 M86.927 83.380 C 86.967 83.611,86.762 83.751,86.470 83.690 C 86.175 83.629,86.060 83.773,86.210 84.016 C 86.394 84.313,86.698 84.254,87.165 83.832 C 87.631 83.410,87.982 83.342,88.259 83.619 C 88.536 83.896,88.667 83.856,88.667 83.493 C 88.667 83.200,88.259 82.960,87.760 82.960 C 87.261 82.960,86.886 83.149,86.927 83.380 M248.369 84.900 C 248.011 86.070,248.161 86.400,249.049 86.400 C 249.904 86.400,249.974 86.299,249.600 85.600 C 249.247 84.941,248.489 84.509,248.369 84.900 M125.999 91.201 C 125.694 91.625,125.254 92.042,125.022 92.127 C 124.790 92.213,125.005 92.216,125.500 92.134 C 125.995 92.052,126.400 92.168,126.400 92.392 C 126.400 92.617,126.563 92.800,126.763 92.800 C 126.962 92.800,127.021 92.395,126.893 91.900 C 126.696 91.136,126.752 91.075,127.264 91.494 C 127.752 91.893,127.867 91.874,127.867 91.394 C 127.867 91.067,127.778 90.888,127.670 90.997 C 127.562 91.105,127.267 91.021,127.014 90.812 C 126.706 90.556,126.372 90.683,125.999 91.201 M273.298 91.466 C 273.021 91.577,272.892 91.825,273.010 92.017 C 273.129 92.208,273.519 92.252,273.878 92.115 C 274.285 91.959,274.432 92.025,274.268 92.290 C 274.108 92.550,274.378 92.693,274.964 92.658 C 275.968 92.597,275.979 92.000,274.976 92.000 C 274.659 92.000,274.400 91.820,274.400 91.600 C 274.400 91.174,274.109 91.139,273.298 91.466 M100.864 98.920 C 101.169 99.490,101.378 99.550,101.810 99.191 C 102.115 98.938,102.551 98.846,102.778 98.986 C 103.017 99.134,103.098 99.000,102.971 98.668 C 102.844 98.339,102.267 98.115,101.612 98.142 C 100.637 98.182,100.529 98.294,100.864 98.920 M303.355 101.772 C 303.224 102.115,302.910 102.278,302.658 102.134 C 302.396 101.984,302.343 102.028,302.533 102.236 C 302.717 102.436,303.077 102.601,303.333 102.602 C 303.590 102.603,303.804 103.039,303.809 103.571 C 303.813 104.104,304.083 104.625,304.409 104.730 C 304.734 104.834,305.113 105.092,305.250 105.303 C 305.404 105.538,305.602 105.520,305.766 105.254 C 305.919 105.007,305.611 104.718,305.043 104.575 C 304.398 104.413,304.130 104.127,304.273 103.753 C 304.442 103.313,304.622 103.286,305.047 103.639 C 305.766 104.235,305.766 103.709,305.048 102.990 C 304.744 102.687,304.355 102.565,304.184 102.719 C 304.013 102.874,303.983 102.691,304.119 102.313 C 304.428 101.451,303.681 100.923,303.355 101.772 M41.117 147.880 C 41.486 148.021,41.513 148.223,41.213 148.584 C 40.889 148.975,41.016 149.048,41.768 148.904 C 42.948 148.678,42.737 147.786,41.490 147.725 C 41.000 147.701,40.833 147.771,41.117 147.880 M32.942 170.236 C 32.911 170.763,33.046 171.095,33.242 170.974 C 33.677 170.705,33.715 169.718,33.300 169.462 C 33.135 169.360,32.974 169.708,32.942 170.236 M279.702 216.600 C 279.696 218.972,279.786 219.722,279.967 218.800 C 280.118 218.030,280.122 216.410,279.977 215.200 C 279.746 213.275,279.711 213.450,279.702 216.600 M120.076 216.724 C 120.034 218.332,119.850 219.555,119.667 219.441 C 119.483 219.328,119.333 219.497,119.333 219.818 C 119.333 220.138,119.480 220.400,119.659 220.400 C 120.197 220.400,120.454 218.709,120.298 216.183 C 120.151 213.801,120.151 213.801,120.076 216.724 M279.600 223.824 C 279.600 224.387,279.763 224.746,279.962 224.623 C 280.162 224.500,280.231 224.039,280.116 223.600 C 279.828 222.499,279.600 222.598,279.600 223.824 M276.400 231.967 C 276.400 232.388,276.175 232.824,275.900 232.935 C 275.601 233.056,275.682 233.150,276.100 233.168 C 276.588 233.190,276.800 232.898,276.800 232.200 C 276.800 231.650,276.710 231.200,276.600 231.200 C 276.490 231.200,276.400 231.545,276.400 231.967 M379.971 235.035 C 379.543 235.551,379.549 235.721,380.007 236.004 C 380.677 236.418,381.200 236.153,381.200 235.400 C 381.200 234.539,380.545 234.344,379.971 235.035 M140.600 245.472 C 141.040 245.593,141.549 245.897,141.730 246.146 C 141.949 246.446,142.006 246.396,141.899 246.000 C 141.810 245.670,141.301 245.367,140.769 245.326 C 140.005 245.268,139.969 245.299,140.600 245.472 M247.784 246.827 C 247.639 247.061,247.628 247.361,247.760 247.493 C 247.892 247.625,248.000 247.502,248.000 247.220 C 248.000 246.904,248.307 246.787,248.801 246.916 C 249.241 247.031,249.500 246.962,249.377 246.763 C 249.070 246.267,248.106 246.305,247.784 246.827 M257.360 247.426 C 257.360 248.429,257.764 248.705,258.200 248.000 C 258.336 247.780,258.246 247.600,258.000 247.600 C 257.754 247.600,257.656 247.432,257.783 247.228 C 257.909 247.023,257.866 246.764,257.687 246.653 C 257.507 246.542,257.360 246.890,257.360 247.426 M16.478 256.882 C 16.215 257.145,16.000 257.851,16.000 258.451 C 16.000 259.108,15.756 259.593,15.387 259.671 C 14.903 259.773,14.949 259.909,15.608 260.317 C 16.290 260.739,16.425 260.739,16.343 260.317 C 16.183 259.486,16.824 257.967,17.229 258.218 C 17.680 258.497,17.710 257.592,17.272 256.902 C 17.027 256.516,16.848 256.512,16.478 256.882 M382.800 257.071 C 382.800 257.832,383.496 258.800,384.043 258.800 C 384.487 258.800,383.974 257.276,383.357 256.764 C 382.914 256.397,382.800 256.459,382.800 257.071 M14.006 261.900 C 14.011 262.701,14.109 262.847,14.369 262.436 C 14.565 262.126,14.633 261.631,14.520 261.336 C 14.196 260.490,13.999 260.706,14.006 261.900 M14.109 274.400 C 14.109 275.390,14.187 275.795,14.282 275.300 C 14.378 274.805,14.378 273.995,14.282 273.500 C 14.187 273.005,14.109 273.410,14.109 274.400 M14.093 281.600 C 14.093 282.370,14.175 282.685,14.276 282.300 C 14.376 281.915,14.376 281.285,14.276 280.900 C 14.175 280.515,14.093 280.830,14.093 281.600 M292.476 292.624 C 292.188 292.950,291.783 293.113,291.576 292.985 C 291.369 292.857,291.200 292.943,291.200 293.176 C 291.200 293.409,291.391 293.600,291.624 293.600 C 291.857 293.600,291.919 293.808,291.762 294.062 C 291.584 294.350,291.652 294.415,291.945 294.234 C 292.202 294.075,292.309 293.777,292.183 293.572 C 292.056 293.368,292.233 293.200,292.576 293.200 C 292.919 293.200,293.200 292.930,293.200 292.600 C 293.200 291.869,293.141 291.871,292.476 292.624 M377.500 292.274 C 378.278 292.574,378.088 293.484,377.200 293.716 C 376.738 293.837,376.420 294.237,376.446 294.663 C 376.485 295.276,376.522 295.290,376.668 294.741 C 376.764 294.379,377.166 293.998,377.561 293.894 C 378.660 293.607,378.887 292.171,377.841 292.121 C 377.379 292.100,377.225 292.168,377.500 292.274 M113.845 294.728 C 113.710 294.946,113.204 295.022,112.722 294.895 C 111.845 294.666,111.845 294.667,112.635 295.515 C 113.488 296.430,115.154 296.569,115.029 295.714 C 114.910 294.909,114.133 294.261,113.845 294.728 M285.000 295.200 C 284.864 295.420,285.068 295.600,285.453 295.600 C 286.087 295.600,286.080 295.653,285.384 296.162 C 284.665 296.688,284.687 296.711,285.714 296.514 C 287.032 296.262,287.509 295.641,286.751 295.161 C 286.015 294.695,285.302 294.711,285.000 295.200 M31.715 301.118 C 31.772 301.497,32.108 302.219,32.460 302.721 L 33.100 303.635 33.295 302.618 C 33.429 301.914,33.314 301.600,32.921 301.600 C 32.608 301.600,32.452 301.439,32.574 301.242 C 32.696 301.045,32.529 300.781,32.202 300.656 C 31.802 300.503,31.644 300.653,31.715 301.118 M367.417 300.836 C 367.538 301.186,367.358 301.703,367.018 301.985 C 366.653 302.288,366.400 302.328,366.400 302.082 C 366.400 301.854,366.625 301.576,366.900 301.465 C 367.212 301.339,367.149 301.251,366.733 301.232 C 365.814 301.188,365.621 302.020,366.375 302.780 C 366.943 303.354,367.086 303.309,367.950 302.288 C 368.472 301.671,368.787 301.054,368.650 300.916 C 368.512 300.779,368.400 300.911,368.400 301.210 C 368.400 301.564,368.191 301.482,367.799 300.976 C 367.393 300.451,367.269 300.406,367.417 300.836 M228.800 308.843 C 228.800 309.360,229.935 309.547,230.121 309.060 C 230.228 308.782,229.985 308.571,229.555 308.571 C 229.140 308.571,228.800 308.694,228.800 308.843 M132.026 309.976 C 131.205 310.495,132.174 311.584,133.215 311.312 C 134.119 311.076,134.198 310.758,133.520 310.080 C 132.950 309.510,132.781 309.498,132.026 309.976 M266.383 310.278 C 266.052 310.808,265.583 311.029,265.037 310.911 C 264.355 310.764,264.311 310.809,264.800 311.156 C 265.130 311.390,265.738 311.477,266.150 311.348 C 266.707 311.174,266.816 311.254,266.573 311.657 C 266.307 312.099,266.361 312.107,266.860 311.703 C 267.197 311.430,267.570 311.303,267.687 311.421 C 267.805 311.538,268.011 311.347,268.146 310.996 C 268.281 310.646,268.224 310.462,268.020 310.588 C 267.816 310.714,267.479 310.512,267.271 310.140 C 266.924 309.522,266.848 309.533,266.383 310.278 M50.897 314.205 C 51.402 314.756,51.715 314.845,52.032 314.528 C 52.347 314.213,52.348 314.015,52.035 313.822 C 51.796 313.674,51.600 313.765,51.600 314.025 C 51.600 314.368,51.408 314.353,50.900 313.971 C 50.234 313.470,50.234 313.481,50.897 314.205 M348.584 314.027 C 348.160 314.713,348.539 314.780,349.377 314.167 C 350.026 313.693,350.046 313.600,349.500 313.600 C 349.141 313.600,348.729 313.792,348.584 314.027 M348.770 315.500 L 347.800 316.600 348.830 315.696 C 349.396 315.199,350.010 314.929,350.194 315.096 C 350.378 315.263,350.399 315.175,350.241 314.900 C 349.862 314.242,349.888 314.231,348.770 315.500 M78.600 326.400 C 78.193 327.058,78.812 327.650,79.634 327.389 C 80.062 327.253,80.400 327.334,80.400 327.573 C 80.400 327.808,80.220 328.000,80.000 328.000 C 79.780 328.000,79.600 328.174,79.600 328.387 C 79.600 328.601,79.872 328.671,80.205 328.543 C 80.653 328.371,80.746 328.504,80.567 329.055 C 80.386 329.611,80.423 329.662,80.713 329.256 C 81.132 328.669,80.925 327.307,80.293 326.500 C 79.823 325.899,78.942 325.847,78.600 326.400 M319.412 326.380 C 319.121 326.851,320.671 327.727,321.208 327.395 C 322.027 326.889,321.581 326.318,320.566 326.573 C 319.896 326.741,319.623 326.686,319.790 326.416 C 319.932 326.187,319.957 326.000,319.847 326.000 C 319.737 326.000,319.542 326.171,319.412 326.380 M82.197 327.063 C 82.305 327.208,82.210 327.547,81.986 327.816 C 81.702 328.159,81.742 328.369,82.120 328.514 C 82.676 328.727,82.811 327.415,82.275 327.008 C 82.124 326.894,82.088 326.918,82.197 327.063 M307.468 330.234 C 307.602 330.582,307.823 330.717,307.960 330.534 C 308.097 330.350,308.372 330.065,308.571 329.900 C 308.770 329.735,308.549 329.600,308.079 329.600 C 307.464 329.600,307.293 329.777,307.468 330.234 M103.703 332.264 C 103.342 332.410,103.318 332.674,103.617 333.232 C 104.144 334.217,105.029 334.226,105.029 333.245 C 105.029 332.751,104.829 332.568,104.449 332.713 C 104.076 332.856,103.972 332.769,104.158 332.468 C 104.469 331.965,104.456 331.960,103.703 332.264 M271.333 333.136 C 271.049 333.590,271.010 334.088,271.231 334.436 C 271.521 334.895,271.589 334.899,271.594 334.457 C 271.597 334.140,271.849 334.010,272.200 334.145 C 272.530 334.271,272.800 334.201,272.800 333.987 C 272.800 333.774,272.536 333.600,272.213 333.600 C 271.855 333.600,271.715 333.365,271.855 333.000 C 272.173 332.173,271.888 332.247,271.333 333.136 M295.674 332.822 C 295.165 333.026,294.861 333.375,294.998 333.597 C 295.388 334.227,295.933 334.073,296.400 333.200 C 296.635 332.760,296.777 332.411,296.714 332.425 C 296.651 332.439,296.183 332.618,295.674 332.822 " stroke="none" fill="#909cfc" fill-rule="evenodd"></path><path id="path2" d="M143.600 64.157 C 143.600 64.546,144.727 64.692,145.236 64.369 C 145.647 64.109,145.501 64.011,144.700 64.006 C 144.095 64.003,143.600 64.071,143.600 64.157 M274.801 69.767 C 274.801 70.005,275.372 70.240,276.070 70.289 C 277.031 70.357,277.226 70.266,276.876 69.916 C 276.273 69.313,274.800 69.208,274.801 69.767 M180.000 79.990 C 180.000 80.214,180.553 80.275,181.300 80.133 C 183.123 79.786,183.181 79.600,181.467 79.600 C 180.660 79.600,180.000 79.776,180.000 79.990 M197.100 79.897 C 198.695 79.973,201.305 79.973,202.900 79.897 C 204.495 79.821,203.190 79.759,200.000 79.759 C 196.810 79.759,195.505 79.821,197.100 79.897 M217.200 79.756 C 217.200 79.842,217.830 79.986,218.600 80.076 C 219.370 80.166,220.000 80.096,220.000 79.920 C 220.000 79.744,219.370 79.600,218.600 79.600 C 217.830 79.600,217.200 79.670,217.200 79.756 M177.474 81.500 C 177.378 81.665,177.426 82.147,177.580 82.571 C 177.830 83.259,177.888 83.270,178.117 82.671 C 178.259 82.302,178.190 82.000,177.964 82.000 C 177.738 82.000,177.664 81.820,177.800 81.600 C 177.936 81.380,177.957 81.200,177.847 81.200 C 177.737 81.200,177.569 81.335,177.474 81.500 M307.762 82.133 C 307.893 82.536,308.011 83.076,308.025 83.333 C 308.039 83.590,308.223 83.369,308.434 82.842 C 308.645 82.315,308.723 81.790,308.609 81.675 C 308.494 81.561,308.397 81.722,308.394 82.033 C 308.389 82.502,308.313 82.496,307.956 82.000 C 307.597 81.501,307.565 81.523,307.762 82.133 M86.927 83.380 C 86.967 83.611,86.762 83.751,86.470 83.690 C 86.175 83.629,86.060 83.773,86.210 84.016 C 86.394 84.313,86.698 84.254,87.165 83.832 C 87.631 83.410,87.982 83.342,88.259 83.619 C 88.536 83.896,88.667 83.856,88.667 83.493 C 88.667 83.200,88.259 82.960,87.760 82.960 C 87.261 82.960,86.886 83.149,86.927 83.380 M248.369 84.900 C 248.011 86.070,248.161 86.400,249.049 86.400 C 249.904 86.400,249.974 86.299,249.600 85.600 C 249.247 84.941,248.489 84.509,248.369 84.900 M125.999 91.201 C 125.694 91.625,125.254 92.042,125.022 92.127 C 124.790 92.213,125.005 92.216,125.500 92.134 C 125.995 92.052,126.400 92.168,126.400 92.392 C 126.400 92.617,126.563 92.800,126.763 92.800 C 126.962 92.800,127.021 92.395,126.893 91.900 C 126.696 91.136,126.752 91.075,127.264 91.494 C 127.752 91.893,127.867 91.874,127.867 91.394 C 127.867 91.067,127.778 90.888,127.670 90.997 C 127.562 91.105,127.267 91.021,127.014 90.812 C 126.706 90.556,126.372 90.683,125.999 91.201 M273.298 91.466 C 273.021 91.577,272.892 91.825,273.010 92.017 C 273.129 92.208,273.519 92.252,273.878 92.115 C 274.285 91.959,274.432 92.025,274.268 92.290 C 274.108 92.550,274.378 92.693,274.964 92.658 C 275.968 92.597,275.979 92.000,274.976 92.000 C 274.659 92.000,274.400 91.820,274.400 91.600 C 274.400 91.174,274.109 91.139,273.298 91.466 M100.864 98.920 C 101.169 99.490,101.378 99.550,101.810 99.191 C 102.115 98.938,102.551 98.846,102.778 98.986 C 103.017 99.134,103.098 99.000,102.971 98.668 C 102.844 98.339,102.267 98.115,101.612 98.142 C 100.637 98.182,100.529 98.294,100.864 98.920 M303.355 101.772 C 303.224 102.115,302.910 102.278,302.658 102.134 C 302.396 101.984,302.343 102.028,302.533 102.236 C 302.717 102.436,303.077 102.601,303.333 102.602 C 303.590 102.603,303.804 103.039,303.809 103.571 C 303.813 104.104,304.083 104.625,304.409 104.730 C 304.734 104.834,305.113 105.092,305.250 105.303 C 305.404 105.538,305.602 105.520,305.766 105.254 C 305.919 105.007,305.611 104.718,305.043 104.575 C 304.398 104.413,304.130 104.127,304.273 103.753 C 304.442 103.313,304.622 103.286,305.047 103.639 C 305.766 104.235,305.766 103.709,305.048 102.990 C 304.744 102.687,304.355 102.565,304.184 102.719 C 304.013 102.874,303.983 102.691,304.119 102.313 C 304.428 101.451,303.681 100.923,303.355 101.772 M41.117 147.880 C 41.486 148.021,41.513 148.223,41.213 148.584 C 40.889 148.975,41.016 149.048,41.768 148.904 C 42.948 148.678,42.737 147.786,41.490 147.725 C 41.000 147.701,40.833 147.771,41.117 147.880 M32.942 170.236 C 32.911 170.763,33.046 171.095,33.242 170.974 C 33.677 170.705,33.715 169.718,33.300 169.462 C 33.135 169.360,32.974 169.708,32.942 170.236 M279.702 216.600 C 279.696 218.972,279.786 219.722,279.967 218.800 C 280.118 218.030,280.122 216.410,279.977 215.200 C 279.746 213.275,279.711 213.450,279.702 216.600 M120.076 216.724 C 120.034 218.332,119.850 219.555,119.667 219.441 C 119.483 219.328,119.333 219.497,119.333 219.818 C 119.333 220.138,119.480 220.400,119.659 220.400 C 120.197 220.400,120.454 218.709,120.298 216.183 C 120.151 213.801,120.151 213.801,120.076 216.724 M279.600 223.824 C 279.600 224.387,279.763 224.746,279.962 224.623 C 280.162 224.500,280.231 224.039,280.116 223.600 C 279.828 222.499,279.600 222.598,279.600 223.824 M276.400 231.967 C 276.400 232.388,276.175 232.824,275.900 232.935 C 275.601 233.056,275.682 233.150,276.100 233.168 C 276.588 233.190,276.800 232.898,276.800 232.200 C 276.800 231.650,276.710 231.200,276.600 231.200 C 276.490 231.200,276.400 231.545,276.400 231.967 M379.971 235.035 C 379.543 235.551,379.549 235.721,380.007 236.004 C 380.677 236.418,381.200 236.153,381.200 235.400 C 381.200 234.539,380.545 234.344,379.971 235.035 M140.600 245.472 C 141.040 245.593,141.549 245.897,141.730 246.146 C 141.949 246.446,142.006 246.396,141.899 246.000 C 141.810 245.670,141.301 245.367,140.769 245.326 C 140.005 245.268,139.969 245.299,140.600 245.472 M247.784 246.827 C 247.639 247.061,247.628 247.361,247.760 247.493 C 247.892 247.625,248.000 247.502,248.000 247.220 C 248.000 246.904,248.307 246.787,248.801 246.916 C 249.241 247.031,249.500 246.962,249.377 246.763 C 249.070 246.267,248.106 246.305,247.784 246.827 M257.360 247.426 C 257.360 248.429,257.764 248.705,258.200 248.000 C 258.336 247.780,258.246 247.600,258.000 247.600 C 257.754 247.600,257.656 247.432,257.783 247.228 C 257.909 247.023,257.866 246.764,257.687 246.653 C 257.507 246.542,257.360 246.890,257.360 247.426 M16.478 256.882 C 16.215 257.145,16.000 257.851,16.000 258.451 C 16.000 259.108,15.756 259.593,15.387 259.671 C 14.903 259.773,14.949 259.909,15.608 260.317 C 16.290 260.739,16.425 260.739,16.343 260.317 C 16.183 259.486,16.824 257.967,17.229 258.218 C 17.680 258.497,17.710 257.592,17.272 256.902 C 17.027 256.516,16.848 256.512,16.478 256.882 M382.800 257.071 C 382.800 257.832,383.496 258.800,384.043 258.800 C 384.487 258.800,383.974 257.276,383.357 256.764 C 382.914 256.397,382.800 256.459,382.800 257.071 M14.006 261.900 C 14.011 262.701,14.109 262.847,14.369 262.436 C 14.565 262.126,14.633 261.631,14.520 261.336 C 14.196 260.490,13.999 260.706,14.006 261.900 M14.109 274.400 C 14.109 275.390,14.187 275.795,14.282 275.300 C 14.378 274.805,14.378 273.995,14.282 273.500 C 14.187 273.005,14.109 273.410,14.109 274.400 M14.093 281.600 C 14.093 282.370,14.175 282.685,14.276 282.300 C 14.376 281.915,14.376 281.285,14.276 280.900 C 14.175 280.515,14.093 280.830,14.093 281.600 M292.476 292.624 C 292.188 292.950,291.783 293.113,291.576 292.985 C 291.369 292.857,291.200 292.943,291.200 293.176 C 291.200 293.409,291.391 293.600,291.624 293.600 C 291.857 293.600,291.919 293.808,291.762 294.062 C 291.584 294.350,291.652 294.415,291.945 294.234 C 292.202 294.075,292.309 293.777,292.183 293.572 C 292.056 293.368,292.233 293.200,292.576 293.200 C 292.919 293.200,293.200 292.930,293.200 292.600 C 293.200 291.869,293.141 291.871,292.476 292.624 M377.500 292.274 C 378.278 292.574,378.088 293.484,377.200 293.716 C 376.738 293.837,376.420 294.237,376.446 294.663 C 376.485 295.276,376.522 295.290,376.668 294.741 C 376.764 294.379,377.166 293.998,377.561 293.894 C 378.660 293.607,378.887 292.171,377.841 292.121 C 377.379 292.100,377.225 292.168,377.500 292.274 M113.845 294.728 C 113.710 294.946,113.204 295.022,112.722 294.895 C 111.845 294.666,111.845 294.667,112.635 295.515 C 113.488 296.430,115.154 296.569,115.029 295.714 C 114.910 294.909,114.133 294.261,113.845 294.728 M285.000 295.200 C 284.864 295.420,285.068 295.600,285.453 295.600 C 286.087 295.600,286.080 295.653,285.384 296.162 C 284.665 296.688,284.687 296.711,285.714 296.514 C 287.032 296.262,287.509 295.641,286.751 295.161 C 286.015 294.695,285.302 294.711,285.000 295.200 M31.715 301.118 C 31.772 301.497,32.108 302.219,32.460 302.721 L 33.100 303.635 33.295 302.618 C 33.429 301.914,33.314 301.600,32.921 301.600 C 32.608 301.600,32.452 301.439,32.574 301.242 C 32.696 301.045,32.529 300.781,32.202 300.656 C 31.802 300.503,31.644 300.653,31.715 301.118 M367.417 300.836 C 367.538 301.186,367.358 301.703,367.018 301.985 C 366.653 302.288,366.400 302.328,366.400 302.082 C 366.400 301.854,366.625 301.576,366.900 301.465 C 367.212 301.339,367.149 301.251,366.733 301.232 C 365.814 301.188,365.621 302.020,366.375 302.780 C 366.943 303.354,367.086 303.309,367.950 302.288 C 368.472 301.671,368.787 301.054,368.650 300.916 C 368.512 300.779,368.400 300.911,368.400 301.210 C 368.400 301.564,368.191 301.482,367.799 300.976 C 367.393 300.451,367.269 300.406,367.417 300.836 M228.800 308.843 C 228.800 309.360,229.935 309.547,230.121 309.060 C 230.228 308.782,229.985 308.571,229.555 308.571 C 229.140 308.571,228.800 308.694,228.800 308.843 M132.026 309.976 C 131.205 310.495,132.174 311.584,133.215 311.312 C 134.119 311.076,134.198 310.758,133.520 310.080 C 132.950 309.510,132.781 309.498,132.026 309.976 M266.383 310.278 C 266.052 310.808,265.583 311.029,265.037 310.911 C 264.355 310.764,264.311 310.809,264.800 311.156 C 265.130 311.390,265.738 311.477,266.150 311.348 C 266.707 311.174,266.816 311.254,266.573 311.657 C 266.307 312.099,266.361 312.107,266.860 311.703 C 267.197 311.430,267.570 311.303,267.687 311.421 C 267.805 311.538,268.011 311.347,268.146 310.996 C 268.281 310.646,268.224 310.462,268.020 310.588 C 267.816 310.714,267.479 310.512,267.271 310.140 C 266.924 309.522,266.848 309.533,266.383 310.278 M50.897 314.205 C 51.402 314.756,51.715 314.845,52.032 314.528 C 52.347 314.213,52.348 314.015,52.035 313.822 C 51.796 313.674,51.600 313.765,51.600 314.025 C 51.600 314.368,51.408 314.353,50.900 313.971 C 50.234 313.470,50.234 313.481,50.897 314.205 M348.584 314.027 C 348.160 314.713,348.539 314.780,349.377 314.167 C 350.026 313.693,350.046 313.600,349.500 313.600 C 349.141 313.600,348.729 313.792,348.584 314.027 M348.770 315.500 L 347.800 316.600 348.830 315.696 C 349.396 315.199,350.010 314.929,350.194 315.096 C 350.378 315.263,350.399 315.175,350.241 314.900 C 349.862 314.242,349.888 314.231,348.770 315.500 M78.600 326.400 C 78.193 327.058,78.812 327.650,79.634 327.389 C 80.062 327.253,80.400 327.334,80.400 327.573 C 80.400 327.808,80.220 328.000,80.000 328.000 C 79.780 328.000,79.600 328.174,79.600 328.387 C 79.600 328.601,79.872 328.671,80.205 328.543 C 80.653 328.371,80.746 328.504,80.567 329.055 C 80.386 329.611,80.423 329.662,80.713 329.256 C 81.132 328.669,80.925 327.307,80.293 326.500 C 79.823 325.899,78.942 325.847,78.600 326.400 M319.412 326.380 C 319.121 326.851,320.671 327.727,321.208 327.395 C 322.027 326.889,321.581 326.318,320.566 326.573 C 319.896 326.741,319.623 326.686,319.790 326.416 C 319.932 326.187,319.957 326.000,319.847 326.000 C 319.737 326.000,319.542 326.171,319.412 326.380 M82.197 327.063 C 82.305 327.208,82.210 327.547,81.986 327.816 C 81.702 328.159,81.742 328.369,82.120 328.514 C 82.676 328.727,82.811 327.415,82.275 327.008 C 82.124 326.894,82.088 326.918,82.197 327.063 M307.468 330.234 C 307.602 330.582,307.823 330.717,307.960 330.534 C 308.097 330.350,308.372 330.065,308.571 329.900 C 308.770 329.735,308.549 329.600,308.079 329.600 C 307.464 329.600,307.293 329.777,307.468 330.234 M103.703 332.264 C 103.342 332.410,103.318 332.674,103.617 333.232 C 104.144 334.217,105.029 334.226,105.029 333.245 C 105.029 332.751,104.829 332.568,104.449 332.713 C 104.076 332.856,103.972 332.769,104.158 332.468 C 104.469 331.965,104.456 331.960,103.703 332.264 M271.333 333.136 C 271.049 333.590,271.010 334.088,271.231 334.436 C 271.521 334.895,271.589 334.899,271.594 334.457 C 271.597 334.140,271.849 334.010,272.200 334.145 C 272.530 334.271,272.800 334.201,272.800 333.987 C 272.800 333.774,272.536 333.600,272.213 333.600 C 271.855 333.600,271.715 333.365,271.855 333.000 C 272.173 332.173,271.888 332.247,271.333 333.136 M295.674 332.822 C 295.165 333.026,294.861 333.375,294.998 333.597 C 295.388 334.227,295.933 334.073,296.400 333.200 C 296.635 332.760,296.777 332.411,296.714 332.425 C 296.651 332.439,296.183 332.618,295.674 332.822 " stroke="none" fill="#909cfc" fill-rule="evenodd"></path><path id="path3" d="M143.600 64.157 C 143.600 64.546,144.727 64.692,145.236 64.369 C 145.647 64.109,145.501 64.011,144.700 64.006 C 144.095 64.003,143.600 64.071,143.600 64.157 M274.801 69.767 C 274.801 70.005,275.372 70.240,276.070 70.289 C 277.031 70.357,277.226 70.266,276.876 69.916 C 276.273 69.313,274.800 69.208,274.801 69.767 M180.000 79.990 C 180.000 80.214,180.553 80.275,181.300 80.133 C 183.123 79.786,183.181 79.600,181.467 79.600 C 180.660 79.600,180.000 79.776,180.000 79.990 M197.100 79.897 C 198.695 79.973,201.305 79.973,202.900 79.897 C 204.495 79.821,203.190 79.759,200.000 79.759 C 196.810 79.759,195.505 79.821,197.100 79.897 M217.200 79.756 C 217.200 79.842,217.830 79.986,218.600 80.076 C 219.370 80.166,220.000 80.096,220.000 79.920 C 220.000 79.744,219.370 79.600,218.600 79.600 C 217.830 79.600,217.200 79.670,217.200 79.756 M177.474 81.500 C 177.378 81.665,177.426 82.147,177.580 82.571 C 177.830 83.259,177.888 83.270,178.117 82.671 C 178.259 82.302,178.190 82.000,177.964 82.000 C 177.738 82.000,177.664 81.820,177.800 81.600 C 177.936 81.380,177.957 81.200,177.847 81.200 C 177.737 81.200,177.569 81.335,177.474 81.500 M307.762 82.133 C 307.893 82.536,308.011 83.076,308.025 83.333 C 308.039 83.590,308.223 83.369,308.434 82.842 C 308.645 82.315,308.723 81.790,308.609 81.675 C 308.494 81.561,308.397 81.722,308.394 82.033 C 308.389 82.502,308.313 82.496,307.956 82.000 C 307.597 81.501,307.565 81.523,307.762 82.133 M86.927 83.380 C 86.967 83.611,86.762 83.751,86.470 83.690 C 86.175 83.629,86.060 83.773,86.210 84.016 C 86.394 84.313,86.698 84.254,87.165 83.832 C 87.631 83.410,87.982 83.342,88.259 83.619 C 88.536 83.896,88.667 83.856,88.667 83.493 C 88.667 83.200,88.259 82.960,87.760 82.960 C 87.261 82.960,86.886 83.149,86.927 83.380 M248.369 84.900 C 248.011 86.070,248.161 86.400,249.049 86.400 C 249.904 86.400,249.974 86.299,249.600 85.600 C 249.247 84.941,248.489 84.509,248.369 84.900 M125.999 91.201 C 125.694 91.625,125.254 92.042,125.022 92.127 C 124.790 92.213,125.005 92.216,125.500 92.134 C 125.995 92.052,126.400 92.168,126.400 92.392 C 126.400 92.617,126.563 92.800,126.763 92.800 C 126.962 92.800,127.021 92.395,126.893 91.900 C 126.696 91.136,126.752 91.075,127.264 91.494 C 127.752 91.893,127.867 91.874,127.867 91.394 C 127.867 91.067,127.778 90.888,127.670 90.997 C 127.562 91.105,127.267 91.021,127.014 90.812 C 126.706 90.556,126.372 90.683,125.999 91.201 M273.298 91.466 C 273.021 91.577,272.892 91.825,273.010 92.017 C 273.129 92.208,273.519 92.252,273.878 92.115 C 274.285 91.959,274.432 92.025,274.268 92.290 C 274.108 92.550,274.378 92.693,274.964 92.658 C 275.968 92.597,275.979 92.000,274.976 92.000 C 274.659 92.000,274.400 91.820,274.400 91.600 C 274.400 91.174,274.109 91.139,273.298 91.466 M100.864 98.920 C 101.169 99.490,101.378 99.550,101.810 99.191 C 102.115 98.938,102.551 98.846,102.778 98.986 C 103.017 99.134,103.098 99.000,102.971 98.668 C 102.844 98.339,102.267 98.115,101.612 98.142 C 100.637 98.182,100.529 98.294,100.864 98.920 M303.355 101.772 C 303.224 102.115,302.910 102.278,302.658 102.134 C 302.396 101.984,302.343 102.028,302.533 102.236 C 302.717 102.436,303.077 102.601,303.333 102.602 C 303.590 102.603,303.804 103.039,303.809 103.571 C 303.813 104.104,304.083 104.625,304.409 104.730 C 304.734 104.834,305.113 105.092,305.250 105.303 C 305.404 105.538,305.602 105.520,305.766 105.254 C 305.919 105.007,305.611 104.718,305.043 104.575 C 304.398 104.413,304.130 104.127,304.273 103.753 C 304.442 103.313,304.622 103.286,305.047 103.639 C 305.766 104.235,305.766 103.709,305.048 102.990 C 304.744 102.687,304.355 102.565,304.184 102.719 C 304.013 102.874,303.983 102.691,304.119 102.313 C 304.428 101.451,303.681 100.923,303.355 101.772 M41.117 147.880 C 41.486 148.021,41.513 148.223,41.213 148.584 C 40.889 148.975,41.016 149.048,41.768 148.904 C 42.948 148.678,42.737 147.786,41.490 147.725 C 41.000 147.701,40.833 147.771,41.117 147.880 M32.942 170.236 C 32.911 170.763,33.046 171.095,33.242 170.974 C 33.677 170.705,33.715 169.718,33.300 169.462 C 33.135 169.360,32.974 169.708,32.942 170.236 M279.702 216.600 C 279.696 218.972,279.786 219.722,279.967 218.800 C 280.118 218.030,280.122 216.410,279.977 215.200 C 279.746 213.275,279.711 213.450,279.702 216.600 M120.076 216.724 C 120.034 218.332,119.850 219.555,119.667 219.441 C 119.483 219.328,119.333 219.497,119.333 219.818 C 119.333 220.138,119.480 220.400,119.659 220.400 C 120.197 220.400,120.454 218.709,120.298 216.183 C 120.151 213.801,120.151 213.801,120.076 216.724 M279.600 223.824 C 279.600 224.387,279.763 224.746,279.962 224.623 C 280.162 224.500,280.231 224.039,280.116 223.600 C 279.828 222.499,279.600 222.598,279.600 223.824 M276.400 231.967 C 276.400 232.388,276.175 232.824,275.900 232.935 C 275.601 233.056,275.682 233.150,276.100 233.168 C 276.588 233.190,276.800 232.898,276.800 232.200 C 276.800 231.650,276.710 231.200,276.600 231.200 C 276.490 231.200,276.400 231.545,276.400 231.967 M379.971 235.035 C 379.543 235.551,379.549 235.721,380.007 236.004 C 380.677 236.418,381.200 236.153,381.200 235.400 C 381.200 234.539,380.545 234.344,379.971 235.035 M140.600 245.472 C 141.040 245.593,141.549 245.897,141.730 246.146 C 141.949 246.446,142.006 246.396,141.899 246.000 C 141.810 245.670,141.301 245.367,140.769 245.326 C 140.005 245.268,139.969 245.299,140.600 245.472 M247.784 246.827 C 247.639 247.061,247.628 247.361,247.760 247.493 C 247.892 247.625,248.000 247.502,248.000 247.220 C 248.000 246.904,248.307 246.787,248.801 246.916 C 249.241 247.031,249.500 246.962,249.377 246.763 C 249.070 246.267,248.106 246.305,247.784 246.827 M257.360 247.426 C 257.360 248.429,257.764 248.705,258.200 248.000 C 258.336 247.780,258.246 247.600,258.000 247.600 C 257.754 247.600,257.656 247.432,257.783 247.228 C 257.909 247.023,257.866 246.764,257.687 246.653 C 257.507 246.542,257.360 246.890,257.360 247.426 M16.478 256.882 C 16.215 257.145,16.000 257.851,16.000 258.451 C 16.000 259.108,15.756 259.593,15.387 259.671 C 14.903 259.773,14.949 259.909,15.608 260.317 C 16.290 260.739,16.425 260.739,16.343 260.317 C 16.183 259.486,16.824 257.967,17.229 258.218 C 17.680 258.497,17.710 257.592,17.272 256.902 C 17.027 256.516,16.848 256.512,16.478 256.882 M382.800 257.071 C 382.800 257.832,383.496 258.800,384.043 258.800 C 384.487 258.800,383.974 257.276,383.357 256.764 C 382.914 256.397,382.800 256.459,382.800 257.071 M14.006 261.900 C 14.011 262.701,14.109 262.847,14.369 262.436 C 14.565 262.126,14.633 261.631,14.520 261.336 C 14.196 260.490,13.999 260.706,14.006 261.900 M14.109 274.400 C 14.109 275.390,14.187 275.795,14.282 275.300 C 14.378 274.805,14.378 273.995,14.282 273.500 C 14.187 273.005,14.109 273.410,14.109 274.400 M14.093 281.600 C 14.093 282.370,14.175 282.685,14.276 282.300 C 14.376 281.915,14.376 281.285,14.276 280.900 C 14.175 280.515,14.093 280.830,14.093 281.600 M292.476 292.624 C 292.188 292.950,291.783 293.113,291.576 292.985 C 291.369 292.857,291.200 292.943,291.200 293.176 C 291.200 293.409,291.391 293.600,291.624 293.600 C 291.857 293.600,291.919 293.808,291.762 294.062 C 291.584 294.350,291.652 294.415,291.945 294.234 C 292.202 294.075,292.309 293.777,292.183 293.572 C 292.056 293.368,292.233 293.200,292.576 293.200 C 292.919 293.200,293.200 292.930,293.200 292.600 C 293.200 291.869,293.141 291.871,292.476 292.624 M377.500 292.274 C 378.278 292.574,378.088 293.484,377.200 293.716 C 376.738 293.837,376.420 294.237,376.446 294.663 C 376.485 295.276,376.522 295.290,376.668 294.741 C 376.764 294.379,377.166 293.998,377.561 293.894 C 378.660 293.607,378.887 292.171,377.841 292.121 C 377.379 292.100,377.225 292.168,377.500 292.274 M113.845 294.728 C 113.710 294.946,113.204 295.022,112.722 294.895 C 111.845 294.666,111.845 294.667,112.635 295.515 C 113.488 296.430,115.154 296.569,115.029 295.714 C 114.910 294.909,114.133 294.261,113.845 294.728 M285.000 295.200 C 284.864 295.420,285.068 295.600,285.453 295.600 C 286.087 295.600,286.080 295.653,285.384 296.162 C 284.665 296.688,284.687 296.711,285.714 296.514 C 287.032 296.262,287.509 295.641,286.751 295.161 C 286.015 294.695,285.302 294.711,285.000 295.200 M31.715 301.118 C 31.772 301.497,32.108 302.219,32.460 302.721 L 33.100 303.635 33.295 302.618 C 33.429 301.914,33.314 301.600,32.921 301.600 C 32.608 301.600,32.452 301.439,32.574 301.242 C 32.696 301.045,32.529 300.781,32.202 300.656 C 31.802 300.503,31.644 300.653,31.715 301.118 M367.417 300.836 C 367.538 301.186,367.358 301.703,367.018 301.985 C 366.653 302.288,366.400 302.328,366.400 302.082 C 366.400 301.854,366.625 301.576,366.900 301.465 C 367.212 301.339,367.149 301.251,366.733 301.232 C 365.814 301.188,365.621 302.020,366.375 302.780 C 366.943 303.354,367.086 303.309,367.950 302.288 C 368.472 301.671,368.787 301.054,368.650 300.916 C 368.512 300.779,368.400 300.911,368.400 301.210 C 368.400 301.564,368.191 301.482,367.799 300.976 C 367.393 300.451,367.269 300.406,367.417 300.836 M228.800 308.843 C 228.800 309.360,229.935 309.547,230.121 309.060 C 230.228 308.782,229.985 308.571,229.555 308.571 C 229.140 308.571,228.800 308.694,228.800 308.843 M132.026 309.976 C 131.205 310.495,132.174 311.584,133.215 311.312 C 134.119 311.076,134.198 310.758,133.520 310.080 C 132.950 309.510,132.781 309.498,132.026 309.976 M266.383 310.278 C 266.052 310.808,265.583 311.029,265.037 310.911 C 264.355 310.764,264.311 310.809,264.800 311.156 C 265.130 311.390,265.738 311.477,266.150 311.348 C 266.707 311.174,266.816 311.254,266.573 311.657 C 266.307 312.099,266.361 312.107,266.860 311.703 C 267.197 311.430,267.570 311.303,267.687 311.421 C 267.805 311.538,268.011 311.347,268.146 310.996 C 268.281 310.646,268.224 310.462,268.020 310.588 C 267.816 310.714,267.479 310.512,267.271 310.140 C 266.924 309.522,266.848 309.533,266.383 310.278 M50.897 314.205 C 51.402 314.756,51.715 314.845,52.032 314.528 C 52.347 314.213,52.348 314.015,52.035 313.822 C 51.796 313.674,51.600 313.765,51.600 314.025 C 51.600 314.368,51.408 314.353,50.900 313.971 C 50.234 313.470,50.234 313.481,50.897 314.205 M348.584 314.027 C 348.160 314.713,348.539 314.780,349.377 314.167 C 350.026 313.693,350.046 313.600,349.500 313.600 C 349.141 313.600,348.729 313.792,348.584 314.027 M348.770 315.500 L 347.800 316.600 348.830 315.696 C 349.396 315.199,350.010 314.929,350.194 315.096 C 350.378 315.263,350.399 315.175,350.241 314.900 C 349.862 314.242,349.888 314.231,348.770 315.500 M78.600 326.400 C 78.193 327.058,78.812 327.650,79.634 327.389 C 80.062 327.253,80.400 327.334,80.400 327.573 C 80.400 327.808,80.220 328.000,80.000 328.000 C 79.780 328.000,79.600 328.174,79.600 328.387 C 79.600 328.601,79.872 328.671,80.205 328.543 C 80.653 328.371,80.746 328.504,80.567 329.055 C 80.386 329.611,80.423 329.662,80.713 329.256 C 81.132 328.669,80.925 327.307,80.293 326.500 C 79.823 325.899,78.942 325.847,78.600 326.400 M319.412 326.380 C 319.121 326.851,320.671 327.727,321.208 327.395 C 322.027 326.889,321.581 326.318,320.566 326.573 C 319.896 326.741,319.623 326.686,319.790 326.416 C 319.932 326.187,319.957 326.000,319.847 326.000 C 319.737 326.000,319.542 326.171,319.412 326.380 M82.197 327.063 C 82.305 327.208,82.210 327.547,81.986 327.816 C 81.702 328.159,81.742 328.369,82.120 328.514 C 82.676 328.727,82.811 327.415,82.275 327.008 C 82.124 326.894,82.088 326.918,82.197 327.063 M307.468 330.234 C 307.602 330.582,307.823 330.717,307.960 330.534 C 308.097 330.350,308.372 330.065,308.571 329.900 C 308.770 329.735,308.549 329.600,308.079 329.600 C 307.464 329.600,307.293 329.777,307.468 330.234 M103.703 332.264 C 103.342 332.410,103.318 332.674,103.617 333.232 C 104.144 334.217,105.029 334.226,105.029 333.245 C 105.029 332.751,104.829 332.568,104.449 332.713 C 104.076 332.856,103.972 332.769,104.158 332.468 C 104.469 331.965,104.456 331.960,103.703 332.264 M271.333 333.136 C 271.049 333.590,271.010 334.088,271.231 334.436 C 271.521 334.895,271.589 334.899,271.594 334.457 C 271.597 334.140,271.849 334.010,272.200 334.145 C 272.530 334.271,272.800 334.201,272.800 333.987 C 272.800 333.774,272.536 333.600,272.213 333.600 C 271.855 333.600,271.715 333.365,271.855 333.000 C 272.173 332.173,271.888 332.247,271.333 333.136 M295.674 332.822 C 295.165 333.026,294.861 333.375,294.998 333.597 C 295.388 334.227,295.933 334.073,296.400 333.200 C 296.635 332.760,296.777 332.411,296.714 332.425 C 296.651 332.439,296.183 332.618,295.674 332.822 " stroke="none" fill="#909cfc" fill-rule="evenodd"></path><path id="path4" d="M143.600 64.157 C 143.600 64.546,144.727 64.692,145.236 64.369 C 145.647 64.109,145.501 64.011,144.700 64.006 C 144.095 64.003,143.600 64.071,143.600 64.157 M274.801 69.767 C 274.801 70.005,275.372 70.240,276.070 70.289 C 277.031 70.357,277.226 70.266,276.876 69.916 C 276.273 69.313,274.800 69.208,274.801 69.767 M180.000 79.990 C 180.000 80.214,180.553 80.275,181.300 80.133 C 183.123 79.786,183.181 79.600,181.467 79.600 C 180.660 79.600,180.000 79.776,180.000 79.990 M197.100 79.897 C 198.695 79.973,201.305 79.973,202.900 79.897 C 204.495 79.821,203.190 79.759,200.000 79.759 C 196.810 79.759,195.505 79.821,197.100 79.897 M217.200 79.756 C 217.200 79.842,217.830 79.986,218.600 80.076 C 219.370 80.166,220.000 80.096,220.000 79.920 C 220.000 79.744,219.370 79.600,218.600 79.600 C 217.830 79.600,217.200 79.670,217.200 79.756 M177.474 81.500 C 177.378 81.665,177.426 82.147,177.580 82.571 C 177.830 83.259,177.888 83.270,178.117 82.671 C 178.259 82.302,178.190 82.000,177.964 82.000 C 177.738 82.000,177.664 81.820,177.800 81.600 C 177.936 81.380,177.957 81.200,177.847 81.200 C 177.737 81.200,177.569 81.335,177.474 81.500 M307.762 82.133 C 307.893 82.536,308.011 83.076,308.025 83.333 C 308.039 83.590,308.223 83.369,308.434 82.842 C 308.645 82.315,308.723 81.790,308.609 81.675 C 308.494 81.561,308.397 81.722,308.394 82.033 C 308.389 82.502,308.313 82.496,307.956 82.000 C 307.597 81.501,307.565 81.523,307.762 82.133 M86.927 83.380 C 86.967 83.611,86.762 83.751,86.470 83.690 C 86.175 83.629,86.060 83.773,86.210 84.016 C 86.394 84.313,86.698 84.254,87.165 83.832 C 87.631 83.410,87.982 83.342,88.259 83.619 C 88.536 83.896,88.667 83.856,88.667 83.493 C 88.667 83.200,88.259 82.960,87.760 82.960 C 87.261 82.960,86.886 83.149,86.927 83.380 M248.369 84.900 C 248.011 86.070,248.161 86.400,249.049 86.400 C 249.904 86.400,249.974 86.299,249.600 85.600 C 249.247 84.941,248.489 84.509,248.369 84.900 M125.999 91.201 C 125.694 91.625,125.254 92.042,125.022 92.127 C 124.790 92.213,125.005 92.216,125.500 92.134 C 125.995 92.052,126.400 92.168,126.400 92.392 C 126.400 92.617,126.563 92.800,126.763 92.800 C 126.962 92.800,127.021 92.395,126.893 91.900 C 126.696 91.136,126.752 91.075,127.264 91.494 C 127.752 91.893,127.867 91.874,127.867 91.394 C 127.867 91.067,127.778 90.888,127.670 90.997 C 127.562 91.105,127.267 91.021,127.014 90.812 C 126.706 90.556,126.372 90.683,125.999 91.201 M273.298 91.466 C 273.021 91.577,272.892 91.825,273.010 92.017 C 273.129 92.208,273.519 92.252,273.878 92.115 C 274.285 91.959,274.432 92.025,274.268 92.290 C 274.108 92.550,274.378 92.693,274.964 92.658 C 275.968 92.597,275.979 92.000,274.976 92.000 C 274.659 92.000,274.400 91.820,274.400 91.600 C 274.400 91.174,274.109 91.139,273.298 91.466 M100.864 98.920 C 101.169 99.490,101.378 99.550,101.810 99.191 C 102.115 98.938,102.551 98.846,102.778 98.986 C 103.017 99.134,103.098 99.000,102.971 98.668 C 102.844 98.339,102.267 98.115,101.612 98.142 C 100.637 98.182,100.529 98.294,100.864 98.920 M303.355 101.772 C 303.224 102.115,302.910 102.278,302.658 102.134 C 302.396 101.984,302.343 102.028,302.533 102.236 C 302.717 102.436,303.077 102.601,303.333 102.602 C 303.590 102.603,303.804 103.039,303.809 103.571 C 303.813 104.104,304.083 104.625,304.409 104.730 C 304.734 104.834,305.113 105.092,305.250 105.303 C 305.404 105.538,305.602 105.520,305.766 105.254 C 305.919 105.007,305.611 104.718,305.043 104.575 C 304.398 104.413,304.130 104.127,304.273 103.753 C 304.442 103.313,304.622 103.286,305.047 103.639 C 305.766 104.235,305.766 103.709,305.048 102.990 C 304.744 102.687,304.355 102.565,304.184 102.719 C 304.013 102.874,303.983 102.691,304.119 102.313 C 304.428 101.451,303.681 100.923,303.355 101.772 M41.117 147.880 C 41.486 148.021,41.513 148.223,41.213 148.584 C 40.889 148.975,41.016 149.048,41.768 148.904 C 42.948 148.678,42.737 147.786,41.490 147.725 C 41.000 147.701,40.833 147.771,41.117 147.880 M32.942 170.236 C 32.911 170.763,33.046 171.095,33.242 170.974 C 33.677 170.705,33.715 169.718,33.300 169.462 C 33.135 169.360,32.974 169.708,32.942 170.236 M279.702 216.600 C 279.696 218.972,279.786 219.722,279.967 218.800 C 280.118 218.030,280.122 216.410,279.977 215.200 C 279.746 213.275,279.711 213.450,279.702 216.600 M120.076 216.724 C 120.034 218.332,119.850 219.555,119.667 219.441 C 119.483 219.328,119.333 219.497,119.333 219.818 C 119.333 220.138,119.480 220.400,119.659 220.400 C 120.197 220.400,120.454 218.709,120.298 216.183 C 120.151 213.801,120.151 213.801,120.076 216.724 M279.600 223.824 C 279.600 224.387,279.763 224.746,279.962 224.623 C 280.162 224.500,280.231 224.039,280.116 223.600 C 279.828 222.499,279.600 222.598,279.600 223.824 M276.400 231.967 C 276.400 232.388,276.175 232.824,275.900 232.935 C 275.601 233.056,275.682 233.150,276.100 233.168 C 276.588 233.190,276.800 232.898,276.800 232.200 C 276.800 231.650,276.710 231.200,276.600 231.200 C 276.490 231.200,276.400 231.545,276.400 231.967 M379.971 235.035 C 379.543 235.551,379.549 235.721,380.007 236.004 C 380.677 236.418,381.200 236.153,381.200 235.400 C 381.200 234.539,380.545 234.344,379.971 235.035 M140.600 245.472 C 141.040 245.593,141.549 245.897,141.730 246.146 C 141.949 246.446,142.006 246.396,141.899 246.000 C 141.810 245.670,141.301 245.367,140.769 245.326 C 140.005 245.268,139.969 245.299,140.600 245.472 M247.784 246.827 C 247.639 247.061,247.628 247.361,247.760 247.493 C 247.892 247.625,248.000 247.502,248.000 247.220 C 248.000 246.904,248.307 246.787,248.801 246.916 C 249.241 247.031,249.500 246.962,249.377 246.763 C 249.070 246.267,248.106 246.305,247.784 246.827 M257.360 247.426 C 257.360 248.429,257.764 248.705,258.200 248.000 C 258.336 247.780,258.246 247.600,258.000 247.600 C 257.754 247.600,257.656 247.432,257.783 247.228 C 257.909 247.023,257.866 246.764,257.687 246.653 C 257.507 246.542,257.360 246.890,257.360 247.426 M16.478 256.882 C 16.215 257.145,16.000 257.851,16.000 258.451 C 16.000 259.108,15.756 259.593,15.387 259.671 C 14.903 259.773,14.949 259.909,15.608 260.317 C 16.290 260.739,16.425 260.739,16.343 260.317 C 16.183 259.486,16.824 257.967,17.229 258.218 C 17.680 258.497,17.710 257.592,17.272 256.902 C 17.027 256.516,16.848 256.512,16.478 256.882 M382.800 257.071 C 382.800 257.832,383.496 258.800,384.043 258.800 C 384.487 258.800,383.974 257.276,383.357 256.764 C 382.914 256.397,382.800 256.459,382.800 257.071 M14.006 261.900 C 14.011 262.701,14.109 262.847,14.369 262.436 C 14.565 262.126,14.633 261.631,14.520 261.336 C 14.196 260.490,13.999 260.706,14.006 261.900 M14.109 274.400 C 14.109 275.390,14.187 275.795,14.282 275.300 C 14.378 274.805,14.378 273.995,14.282 273.500 C 14.187 273.005,14.109 273.410,14.109 274.400 M14.093 281.600 C 14.093 282.370,14.175 282.685,14.276 282.300 C 14.376 281.915,14.376 281.285,14.276 280.900 C 14.175 280.515,14.093 280.830,14.093 281.600 M292.476 292.624 C 292.188 292.950,291.783 293.113,291.576 292.985 C 291.369 292.857,291.200 292.943,291.200 293.176 C 291.200 293.409,291.391 293.600,291.624 293.600 C 291.857 293.600,291.919 293.808,291.762 294.062 C 291.584 294.350,291.652 294.415,291.945 294.234 C 292.202 294.075,292.309 293.777,292.183 293.572 C 292.056 293.368,292.233 293.200,292.576 293.200 C 292.919 293.200,293.200 292.930,293.200 292.600 C 293.200 291.869,293.141 291.871,292.476 292.624 M377.500 292.274 C 378.278 292.574,378.088 293.484,377.200 293.716 C 376.738 293.837,376.420 294.237,376.446 294.663 C 376.485 295.276,376.522 295.290,376.668 294.741 C 376.764 294.379,377.166 293.998,377.561 293.894 C 378.660 293.607,378.887 292.171,377.841 292.121 C 377.379 292.100,377.225 292.168,377.500 292.274 M113.845 294.728 C 113.710 294.946,113.204 295.022,112.722 294.895 C 111.845 294.666,111.845 294.667,112.635 295.515 C 113.488 296.430,115.154 296.569,115.029 295.714 C 114.910 294.909,114.133 294.261,113.845 294.728 M285.000 295.200 C 284.864 295.420,285.068 295.600,285.453 295.600 C 286.087 295.600,286.080 295.653,285.384 296.162 C 284.665 296.688,284.687 296.711,285.714 296.514 C 287.032 296.262,287.509 295.641,286.751 295.161 C 286.015 294.695,285.302 294.711,285.000 295.200 M31.715 301.118 C 31.772 301.497,32.108 302.219,32.460 302.721 L 33.100 303.635 33.295 302.618 C 33.429 301.914,33.314 301.600,32.921 301.600 C 32.608 301.600,32.452 301.439,32.574 301.242 C 32.696 301.045,32.529 300.781,32.202 300.656 C 31.802 300.503,31.644 300.653,31.715 301.118 M367.417 300.836 C 367.538 301.186,367.358 301.703,367.018 301.985 C 366.653 302.288,366.400 302.328,366.400 302.082 C 366.400 301.854,366.625 301.576,366.900 301.465 C 367.212 301.339,367.149 301.251,366.733 301.232 C 365.814 301.188,365.621 302.020,366.375 302.780 C 366.943 303.354,367.086 303.309,367.950 302.288 C 368.472 301.671,368.787 301.054,368.650 300.916 C 368.512 300.779,368.400 300.911,368.400 301.210 C 368.400 301.564,368.191 301.482,367.799 300.976 C 367.393 300.451,367.269 300.406,367.417 300.836 M228.800 308.843 C 228.800 309.360,229.935 309.547,230.121 309.060 C 230.228 308.782,229.985 308.571,229.555 308.571 C 229.140 308.571,228.800 308.694,228.800 308.843 M132.026 309.976 C 131.205 310.495,132.174 311.584,133.215 311.312 C 134.119 311.076,134.198 310.758,133.520 310.080 C 132.950 309.510,132.781 309.498,132.026 309.976 M266.383 310.278 C 266.052 310.808,265.583 311.029,265.037 310.911 C 264.355 310.764,264.311 310.809,264.800 311.156 C 265.130 311.390,265.738 311.477,266.150 311.348 C 266.707 311.174,266.816 311.254,266.573 311.657 C 266.307 312.099,266.361 312.107,266.860 311.703 C 267.197 311.430,267.570 311.303,267.687 311.421 C 267.805 311.538,268.011 311.347,268.146 310.996 C 268.281 310.646,268.224 310.462,268.020 310.588 C 267.816 310.714,267.479 310.512,267.271 310.140 C 266.924 309.522,266.848 309.533,266.383 310.278 M50.897 314.205 C 51.402 314.756,51.715 314.845,52.032 314.528 C 52.347 314.213,52.348 314.015,52.035 313.822 C 51.796 313.674,51.600 313.765,51.600 314.025 C 51.600 314.368,51.408 314.353,50.900 313.971 C 50.234 313.470,50.234 313.481,50.897 314.205 M348.584 314.027 C 348.160 314.713,348.539 314.780,349.377 314.167 C 350.026 313.693,350.046 313.600,349.500 313.600 C 349.141 313.600,348.729 313.792,348.584 314.027 M348.770 315.500 L 347.800 316.600 348.830 315.696 C 349.396 315.199,350.010 314.929,350.194 315.096 C 350.378 315.263,350.399 315.175,350.241 314.900 C 349.862 314.242,349.888 314.231,348.770 315.500 M78.600 326.400 C 78.193 327.058,78.812 327.650,79.634 327.389 C 80.062 327.253,80.400 327.334,80.400 327.573 C 80.400 327.808,80.220 328.000,80.000 328.000 C 79.780 328.000,79.600 328.174,79.600 328.387 C 79.600 328.601,79.872 328.671,80.205 328.543 C 80.653 328.371,80.746 328.504,80.567 329.055 C 80.386 329.611,80.423 329.662,80.713 329.256 C 81.132 328.669,80.925 327.307,80.293 326.500 C 79.823 325.899,78.942 325.847,78.600 326.400 M319.412 326.380 C 319.121 326.851,320.671 327.727,321.208 327.395 C 322.027 326.889,321.581 326.318,320.566 326.573 C 319.896 326.741,319.623 326.686,319.790 326.416 C 319.932 326.187,319.957 326.000,319.847 326.000 C 319.737 326.000,319.542 326.171,319.412 326.380 M82.197 327.063 C 82.305 327.208,82.210 327.547,81.986 327.816 C 81.702 328.159,81.742 328.369,82.120 328.514 C 82.676 328.727,82.811 327.415,82.275 327.008 C 82.124 326.894,82.088 326.918,82.197 327.063 M307.468 330.234 C 307.602 330.582,307.823 330.717,307.960 330.534 C 308.097 330.350,308.372 330.065,308.571 329.900 C 308.770 329.735,308.549 329.600,308.079 329.600 C 307.464 329.600,307.293 329.777,307.468 330.234 M103.703 332.264 C 103.342 332.410,103.318 332.674,103.617 333.232 C 104.144 334.217,105.029 334.226,105.029 333.245 C 105.029 332.751,104.829 332.568,104.449 332.713 C 104.076 332.856,103.972 332.769,104.158 332.468 C 104.469 331.965,104.456 331.960,103.703 332.264 M271.333 333.136 C 271.049 333.590,271.010 334.088,271.231 334.436 C 271.521 334.895,271.589 334.899,271.594 334.457 C 271.597 334.140,271.849 334.010,272.200 334.145 C 272.530 334.271,272.800 334.201,272.800 333.987 C 272.800 333.774,272.536 333.600,272.213 333.600 C 271.855 333.600,271.715 333.365,271.855 333.000 C 272.173 332.173,271.888 332.247,271.333 333.136 M295.674 332.822 C 295.165 333.026,294.861 333.375,294.998 333.597 C 295.388 334.227,295.933 334.073,296.400 333.200 C 296.635 332.760,296.777 332.411,296.714 332.425 C 296.651 332.439,296.183 332.618,295.674 332.822 " stroke="none" fill="#909cfc" fill-rule="evenodd"></path></g></svg>