<svg viewBox="0 0 341.33 341.33" xmlns="http://www.w3.org/2000/svg" xmlns:xlink="http://www.w3.org/1999/xlink">
 <defs>
  <linearGradient id="o" x1=".48404" x2=".46808" y1="-.13638" y2=".65151" xlink:href="#a"/>
  <linearGradient id="b">
   <stop stop-color="#5da8ff" offset="0"/>
   <stop stop-color="#5da8ff" stop-opacity="0" offset="1"/>
  </linearGradient>
  <linearGradient id="q" x1=".34865" x2=".44855" y1=".11456" y2=".58276" xlink:href="#a"/>
  <linearGradient id="n" x1=".49558" x2=".5" y1=".023036" y2="1.0148" xlink:href="#a"/>
  <linearGradient id="p" x1=".5606" x2=".55303" y1=".030291" y2=".77272" xlink:href="#a"/>
  <linearGradient id="r" x1=".39286" x2=".65" y1=".090898" y2=".65151" xlink:href="#a"/>
  <linearGradient id="a">
   <stop stop-color="#fff" offset="0"/>
   <stop stop-color="#fff" stop-opacity="0" offset="1"/>
  </linearGradient>
  <radialGradient id="w" cx="-1095.5" cy="691.14" r="595.99" fx="-819.68" fy="902.63" gradientTransform="matrix(.18056 0 0 .18056 366.85 60.293)" gradientUnits="userSpaceOnUse" spreadMethod="reflect">
   <stop stop-color="#fff" stop-opacity="0" offset="0"/>
   <stop stop-opacity=".173" offset="1"/>
  </radialGradient>
  <radialGradient id="u" cx="389.18" cy="568.66" r="270.77" gradientTransform="matrix(.19825 0 0 .19953 81.556 34.191)" gradientUnits="userSpaceOnUse" xlink:href="#b"/>
  <radialGradient id="v" cx="389.18" cy="568.66" r="270.77" gradientTransform="matrix(.1915 .051311 -.051641 .19273 113.55 18.088)" gradientUnits="userSpaceOnUse" xlink:href="#b"/>
  <radialGradient id="s" cx="-530.93" cy="1860.3" r="615.2" gradientTransform="matrix(.20888 0 0 .081004 270.9 81.446)" gradientUnits="userSpaceOnUse">
   <stop offset="0"/>
   <stop stop-opacity="0" offset="1"/>
  </radialGradient>
  <radialGradient id="x" y1="1" y2="1" cx="-1110.3" cy="444.67" r="68.038" fx="-1092.1" fy="406.02" gradientTransform="matrix(.97796 .36796 .51729 -.62352 1011.7 892.16)" gradientUnits="userSpaceOnUse">
   <stop offset="0"/>
   <stop stop-opacity="0" offset="1"/>
  </radialGradient>
  <radialGradient id="t" cx="-1040.4" cy="773.9" r="281.32" fx="-1058.8" fy="819.88" gradientTransform="matrix(.18056 0 0 .18056 345.59 1.2358)" gradientUnits="userSpaceOnUse" spreadMethod="reflect">
   <stop stop-color="#f8f8f8" offset="0"/>
   <stop stop-color="#dbdbdb" offset="1"/>
  </radialGradient>
 </defs>
 <g fill-rule="evenodd" stroke-linecap="round">
  <path d="m288.5 232.13a128.5 49.834 0 1 1 -257 0 128.5 49.834 0 1 1 257 0z" fill="url(#s)" opacity=".467" stroke-width="3"/>
  <path d="m268.98 147.61a109.58 109.58 0 1 1 -219.16 0 109.58 109.58 0 1 1 219.16 0z" fill="url(#t)" stroke-width="2.898"/>
  <path d="m213.8 147.61a54.399 54.399 0 1 1 -108.8 0 54.399 54.399 0 1 1 108.8 0z" fill="#3f7f00" stroke-width=".447"/>
  <path d="m269.24 147.67a109.58 109.58 0 1 1 -219.16 0 109.58 109.58 0 1 1 219.16 0z" fill="url(#w)" stroke-width="2.898"/>
  <g stroke-width=".447">
   <path d="m152.77 93.627c-0.21158 0.025787-0.42313 0.052589-0.63396 0.080803 0.26559 1.2303 0.53125 2.4644 0.78934 3.6794-0.054962-1.2411-0.10376-2.5024-0.15538-3.7602zm0.1554 3.7602c0.79121 17.864 1.9681 33.783 5.0406 39.529 1.533-6.3324-1.3247-22.037-5.0406-39.529zm5.0406 39.529c-0.36546 1.5096-0.95079 2.5521-1.8583 2.9025-0.90898 0.35095-2.0438-0.032028-3.3314-0.90742 0.38031 1.5105 0.34981 2.7099-0.29211 3.4432-0.64094 0.73224-1.8246 0.92133-3.3687 0.74582 1.036 1.159 1.5636 2.2357 1.3363 3.1822-0.22762 0.94783-1.1885 1.6626-2.6415 2.225 1.4589 0.54507 2.4275 1.2492 2.6664 2.194 0.23857 0.94368-0.27698 2.0233-1.299 3.1946 1.5449-0.19525 2.7244-0.016953 3.3749 0.70856 0.64987 0.72482 0.69641 1.9184 0.33562 3.4308 1.2759-0.88922 2.4065-1.2845 3.3189-0.94469 0.9135 0.34021 1.5124 1.3798 1.8956 2.8901 0.71695-1.3824 1.5319-2.2572 2.4985-2.3804 0.96605-0.12314 1.9743 0.52124 3.0144 1.6781-0.007568-1.557 0.31395-2.7109 1.1125-3.2692 0.79768-0.55765 1.9859-0.45927 3.4432 0.080826-0.72878-1.3736-0.98181-2.5475-0.53452-3.4122 0.44771-0.86556 1.5506-1.3304 3.0952-1.529-1.2862-0.8784-2.0576-1.7912-2.0635-2.7658-0.005829-0.97492 0.75584-1.9029 2.0324-2.7969-1.5467-0.18014-2.6558-0.63156-3.1138-1.4916-0.45799-0.86012-0.21678-2.0344 0.49722-3.4184-1.454 0.55983-2.644 0.67323-3.4495 0.12431-0.80518-0.54874-1.1388-1.6936-1.1498-3.2506-1.0256 1.168-2.0288 1.8207-2.9957 1.7092-0.96661-0.11153-1.7908-0.97316-2.5234-2.3432zm5.5191 0.634c4.299-4.8954 9.0665-20.12 13.904-37.329-7.5961 16.175-13.95 30.812-13.904 37.329zm13.904-37.329c0.52191-1.1114 1.0586-2.2381 1.5911-3.3624-0.198-0.076492-0.39131-0.16192-0.59044-0.23616-0.33411 1.2036-0.66707 2.4118-1.0007 3.5986zm-9.3042 40.455c6.0853-2.3431 17.39-13.61 29.672-26.601-14.25 10.797-26.682 20.807-29.672 26.601zm29.672-26.601c0.90488-0.68561 1.829-1.3784 2.7471-2.0697-0.1277-0.14725-0.2561-0.29542-0.38534-0.44128-0.78896 0.83964-1.58 1.6839-2.3618 2.511zm-27.055 31.511c6.4757 0.75418 21.716-3.9686 38.628-9.7642-17.631 2.9374-33.287 6.0237-38.628 9.7641zm38.628-9.7641c1.011-0.16844 2.0412-0.33589 3.0641-0.50343-0.039886-0.17244-0.082779-0.34406-0.1243-0.51587-0.98166 0.33946-1.9682 0.68634-2.9398 1.0193zm-38.597 15.327c5.3828 3.6762 21.071 6.5775 38.733 9.3042-16.975-5.5918-32.268-10.135-38.733-9.3042zm38.733 9.3042c0.85574 0.28189 1.7281 0.57083 2.5918 0.85771 0.03862-0.14864 0.074509-0.29839 0.11188-0.44751-0.9014-0.13687-1.8116-0.27249-2.7036-0.4102zm-41.294-4.3631c3.0542 5.7565 15.605 15.615 29.982 26.241-12.437-12.845-23.872-23.976-29.982-26.241zm29.982 26.241c0.54097 0.55875 1.0901 1.1319 1.6346 1.6968 0.089417-0.09906 0.17856-0.19859 0.26726-0.29832-0.63316-0.46584-1.2753-0.93529-1.9019-1.3984zm-34.538-23.052c0.031754 6.5187 6.56 21.079 14.351 37.167-5.042-17.151-9.9936-32.321-14.351-37.167zm14.351 37.167c0.20126 0.6846 0.40135 1.3853 0.60289 2.0759 0.11508-0.043396 0.22713-0.092621 0.34183-0.13676-0.31416-0.64543-0.63437-1.2983-0.94472-1.9392zm-19.864-36.465c-3.0004 5.7856-3.9902 21.706-4.5682 39.566 3.504-17.521 6.1715-33.248 4.5682-39.566zm-4.5682 39.566c-0.13792 0.68956-0.28226 1.3935-0.42261 2.0883 0.12042 0.013931 0.23978 0.030426 0.36046 0.043518 0.021576-0.70946 0.039398-1.4281 0.062149-2.1318zm-0.6464-41.512c-5.3473 3.7267-13.62 17.379-22.437 32.935 11.254-13.896 20.925-26.595 22.437-32.935zm-22.437 32.935c-0.47176 0.5825-0.95868 1.1724-1.4357 1.7589 0.10818 0.072998 0.22072 0.13902 0.32945 0.2113 0.36955-0.65515 0.73854-1.3214 1.1063-1.9702zm18.726-37.074c-6.4664 0.81732-20.132 9.0494-35.16 18.72 16.415-7.0716 30.876-13.812 35.16-18.72zm-35.16 18.72c-0.78506 0.33821-1.587 0.67972-2.3804 1.0193 0.069862 0.12787 0.14667 0.25188 0.21757 0.3791 0.72061-0.46612 1.448-0.93837 2.1629-1.3984zm33.792-24.109c-6.1062-2.2814-22.031-1.3433-39.833 0.23618 17.819 1.3669 33.754 2.1173 39.833-0.23618zm-39.833 0.2362c-0.97268-0.074615-1.9631-0.15814-2.946-0.23618 0.002762 0.16789 0.008171 0.33592 0.012451 0.50345 0.97894-0.089478 1.9649-0.18132 2.9336-0.26727zm41.139-5.6434c-4.3402-4.856-18.872-11.418-35.365-18.291 15.14 9.4892 28.894 17.556 35.365 18.291zm-35.365-18.291c-0.94366-0.59145-1.8994-1.2009-2.8528-1.8024-0.087013 0.17104-0.18202 0.33757-0.26725 0.50964 1.0429 0.43097 2.091 0.86393 3.12 1.2928zm39.026 14.102c-1.5912-6.3205-11.412-18.891-22.822-32.642 8.9974 15.441 17.432 28.978 22.822 32.642zm-22.822-32.642c-0.60526-1.0387-1.2176-2.097-1.8273-3.1511-0.16882 0.11896-0.33603 0.23966-0.50343 0.3605 0.77943 0.93326 1.5642 1.8669 2.3308 2.7906z" fill="url(#u)"/>
   <path d="m166.96 93.93c-0.21104-0.029869-0.4223-0.058716-0.63326-0.086037-0.06192 1.2571-0.12472 2.518-0.18986 3.7584 0.26813-1.2131 0.54741-2.444 0.82312-3.6723zm-0.8231 3.6723c-3.8593 17.46-6.8427 33.141-5.362 39.487 3.1197-5.7199 4.4241-21.629 5.362-39.487zm-5.362 39.487c-0.74374 1.3636-1.5789 2.2191-2.5463 2.3226-0.96884 0.10371-1.9659-0.55991-2.983-1.7387-0.02359 1.5574-0.36346 2.7081-1.1733 3.2503-0.80867 0.54141-2.001 0.41768-3.4469-0.15144 0.70064 1.3876 0.93164 2.5642 0.46713 3.4196-0.46521 0.85664-1.5783 1.2983-3.1274 1.4656 1.2681 0.90408 2.0215 1.8349 2.0076 2.8093-0.013809 0.97327-0.79121 1.8827-2.0815 2.7496 1.5428 0.21124 2.6359 0.68872 3.0764 1.5579 0.44016 0.86833 0.17621 2.0333-0.56374 3.4008 1.4626-0.5287 2.657-0.61792 3.4503-0.053513 0.79433 0.56502 1.1038 1.7243 1.083 3.2822 1.0503-1.1498 2.0639-1.7838 3.0295-1.6526 0.96497 0.13107 1.7721 1.0145 2.4773 2.4011 0.39568-1.5059 1.0049-2.5373 1.9208-2.8699 0.91481-0.3322 2.0371 0.070328 3.305 0.96921-0.34845-1.5154-0.28903-2.7148 0.36684-3.4342 0.65648-0.72017 1.8421-0.88377 3.3854-0.67577-1.015-1.1814-1.5239-2.2628-1.2773-3.2056 0.2467-0.94321 1.2226-1.6424 2.687-2.1755-1.4474-0.57431-2.4019-1.2974-2.6217-2.2467-0.21977-0.94937 0.31717-2.0212 1.365-3.1732-1.5494 0.16446-2.7281-0.033997-3.3641-0.7727-0.63574-0.73842-0.6617-1.9306-0.26935-3.4374-1.293 0.86267-2.4309 1.2336-3.336 0.8756-0.90482-0.35788-1.4779-1.4035-1.831-2.9164zm5.167 2.0408c5.4196-3.616 13.965-17.088 23.091-32.458-11.524 13.658-21.449 26.151-23.091 32.458zm23.091-32.458c0.79178-0.93841 1.6018-1.8878 2.4072-2.8361-0.17146-0.12514-0.33608-0.25769-0.50919-0.38094-0.63426 1.0761-1.2686 2.157-1.898 3.217zm-19.458 36.668c6.4844-0.68826 20.32-8.6453 35.545-18.015-16.559 6.7411-31.158 13.192-35.545 18.015zm35.545-18.015c1.0515-0.42804 2.1234-0.858 3.1892-1.2881-0.08522-0.17529-0.17091-0.35165-0.25801-0.52598-0.97937 0.60682-1.962 1.2176-2.9312 1.8141zm-34.289 23.435c6.0599 2.4045 22.004 1.7873 39.839 0.56615-17.791-1.7259-33.712-2.7968-39.839-0.56615zm39.839 0.5661c1.0202 0.098984 2.0586 0.20384 3.09 0.30678 0.006088-0.17688 0.009079-0.35376 0.013428-0.53046-1.0361 0.073822-2.0788 0.15353-3.1034 0.22368zm-41.248 4.815c4.2479 4.9442 18.651 11.807 35.005 19.012-14.949-9.7947-28.546-18.142-35.005-19.012zm35.005 19.012c0.75362 0.49379 1.5214 0.99864 2.2815 1.4993 0.07576-0.13359 0.14916-0.26892 0.22388-0.40332-0.83525-0.36551-1.6794-0.73207-2.5053-1.096zm-38.758-14.902c1.4602 6.3509 11.032 19.122 22.169 33.107-8.6884-15.626-16.853-29.338-22.169-33.107zm22.169 33.107c0.37791 0.67969 0.75996 1.3755 1.1397 2.062 0.11202-0.07254 0.22389-0.1456 0.33539-0.21898-0.49103-0.61385-0.98976-1.2335-1.4751-1.843zm-27.395-31.206c-1.6565 6.3048 0.88081 22.059 4.2424 39.615-0.4312-17.871-1.2879-33.806-4.2424-39.615zm4.2424 39.615c0.017227 0.71336 0.02916 1.4419 0.045074 2.1612 0.12241-0.0121 0.24335-0.03064 0.36557-0.043594-0.13638-0.70477-0.27673-1.4183-0.41064-2.1176zm-9.7493-40.364c-4.3956 4.8119-9.4723 19.934-14.653 37.036 7.9194-16.017 14.566-30.518 14.653-37.036zm-14.653 37.036c-0.31163 0.63037-0.63327 1.273-0.9487 1.9078 0.11272 0.044601 0.22376 0.091431 0.33691 0.13533 0.20445-0.67972 0.40767-1.3693 0.61179-2.0431zm10.12-40.264c-6.1296 2.2157-17.654 13.261-30.197 26.005 14.467-10.51 27.095-20.273 30.197-26.005zm-30.197 26.005c-0.60644 0.44055-1.2294 0.88432-1.842 1.3274 0.085564 0.098526 0.17718 0.19142 0.26349 0.28937 0.5265-0.5372 1.0554-1.0852 1.5786-1.6168zm27.684-30.964c-6.4576-0.88416-21.788 3.5306-38.807 8.9824 17.686-2.5821 33.399-5.3495 38.807-8.9824zm-38.807 8.9825c-0.84584 0.12349-1.7089 0.24579-2.5632 0.36845 0.034409 0.14162 0.076477 0.28125 0.11198 0.42253 0.81674-0.26376 1.6416-0.53165 2.4512-0.79098zm38.881-14.541c-5.3077-3.7841-20.932-6.9995-38.537-10.082 16.858 5.9322 32.056 10.781 38.537 10.082zm-38.537-10.082c-0.92018-0.32382-1.8552-0.66084-2.7845-0.99063-0.040802 0.16289-0.079071 0.3266-0.11832 0.4895 0.96878 0.16696 1.9449 0.33342 2.9028 0.50113zm41.198 5.1963c-2.9355-5.8139-15.274-15.914-29.426-26.821 12.168 13.084 23.366 24.436 29.426 26.821zm-29.426-26.821c-0.75841-0.81554-1.5238-1.6516-2.289-2.4794-0.12829 0.14271-0.26321 0.27897-0.39008 0.42312 0.89582 0.68621 1.7962 1.3757 2.6791 2.0562zm34.046 23.722c0.098877-6.517-6.1336-21.201-13.596-37.437 4.6944 17.244 9.3384 32.502 13.596 37.437zm-13.596-37.437c-0.31576-1.1599-0.63327-2.3407-0.9494-3.5167-0.19392 0.071205-0.38661 0.14451-0.57959 0.21789 0.51128 1.1032 1.0277 2.2081 1.529 3.2988z" fill="url(#v)" opacity=".36"/>
   <g transform="matrix(.33666 0 0 .33666 37.548 -20.502)">
    <path d="m425.35 499.36a63.389 63.389 0 1 1 -126.78 0 63.389 63.389 0 1 1 126.78 0z"/>
    <path d="m399.35 469.72a37.384 21.942 0 1 1 -74.767 0 37.384 21.942 0 1 1 74.767 0z" fill="url(#n)" opacity=".766"/>
   </g>
  </g>
  <g stroke-width="3">
   <path d="m194.98 122.82a34.841 24.509 0 1 1 -69.683 0 34.841 24.509 0 1 1 69.683 0z" fill="url(#o)"/>
   <path d="m128.18 140.84a8.8905 8.8905 0 1 1 -17.781 0 8.8905 8.8905 0 1 1 17.781 0z" fill="url(#p)" opacity=".523"/>
   <path d="m244.43 107.98a61.787 36.105 0 1 1 -123.58 -42.247 61.787 36.105 0 1 1 123.58 42.247z" fill="url(#q)" opacity=".9"/>
   <path d="m97.155 107.97a14.014 39.052 0 1 1 -28.028 -5.7107 14.014 39.052 0 1 1 28.028 5.7107z" fill="url(#r)" opacity=".9"/>
  </g>
  <path d="m220.86 230.81" fill="url(#x)" opacity=".2" stroke-width="3.179"/>
 </g>
</svg>
